<svg id="Layer_1" data-name="Layer 1" xmlns="http://www.w3.org/2000/svg" xmlns:xlink="http://www.w3.org/1999/xlink" viewBox="0 0 474 205"><defs><linearGradient id="linear-gradient" x1="-315.52" y1="2.37" x2="-314.33" y2="2.58" gradientTransform="matrix(474 0 0 204 149468 -405.43)" gradientUnits="userSpaceOnUse"><stop offset="0" stop-color="#4fc5d2"/><stop offset="1" stop-color="#3ee5a9"/></linearGradient><linearGradient id="linear-gradient-2" x1="-440.24" y1="164.12" x2="-440.24" y2="162.94" gradientTransform="matrix(110.58 0 0 15.36 48866.08 -2366.46)" gradientUnits="userSpaceOnUse"><stop offset="0" stop-color="#3a3c47" stop-opacity="0"/><stop offset="1"/></linearGradient><linearGradient id="linear-gradient-3" x1="-422.15" y1="54.2" x2="-422.15" y2="55.21" gradientTransform="matrix(184.2 82.01 -30.72 69 79637.52 30914.33)" gradientUnits="userSpaceOnUse"><stop offset="0" stop-color="#fff" stop-opacity="0"/><stop offset="1" stop-color="#fff"/></linearGradient><linearGradient id="linear-gradient-4" x1="-393.05" y1="123.09" x2="-392.61" y2="121.65" gradientTransform="matrix(22.47 0 0 42.13 8932.67 -5038.97)" gradientUnits="userSpaceOnUse"><stop offset="0" stop-color="#fff" stop-opacity="0.5"/><stop offset="1" stop-color="#2d2c3e" stop-opacity="0.5"/></linearGradient><linearGradient id="linear-gradient-5" x1="-392.98" y1="122.68" x2="-392.7" y2="123.18" gradientTransform="matrix(22.47 0 0 42.13 8932.67 -5038.97)" gradientUnits="userSpaceOnUse"><stop offset="0" stop-color="#fff"/><stop offset="1" stop-color="#e3e5e6"/></linearGradient><linearGradient id="linear-gradient-6" x1="-397.43" y1="123.25" x2="-397.43" y2="123.6" gradientTransform="matrix(39.33 17.51 -15.21 34.17 17611.67 2868.12)" xlink:href="#linear-gradient-3"/><linearGradient id="linear-gradient-7" x1="-543" y1="86.28" x2="-543" y2="86.7" gradientTransform="matrix(121.27 53.99 -42.08 94.52 69783.78 21236.89)" xlink:href="#linear-gradient-3"/><linearGradient id="linear-gradient-8" x1="-528.66" y1="222.08" x2="-527.88" y2="222.08" gradientTransform="matrix(141.87 0 0 5.51 75239.73 -1072.34)" xlink:href="#linear-gradient-4"/><radialGradient id="radial-gradient" cx="-468.12" cy="93.59" r="5.45" gradientTransform="matrix(0 6.54 -6.54 0 953.7 3204.5)" gradientUnits="userSpaceOnUse"><stop offset="0" stop-opacity="0.1"/><stop offset="1" stop-opacity="0"/></radialGradient><linearGradient id="linear-gradient-9" x1="-639.24" y1="115.1" x2="-638.73" y2="115.6" gradientTransform="matrix(35.94 0 0 50.26 23317.8 -5663.24)" xlink:href="#linear-gradient-5"/><linearGradient id="linear-gradient-10" x1="-642.88" y1="117.8" x2="-642.88" y2="118.3" gradientTransform="matrix(56.53 25.17 -14.86 33.37 38449.67 12360.84)" xlink:href="#linear-gradient-3"/><linearGradient id="linear-gradient-11" x1="-652.74" y1="198.92" x2="-652.74" y2="201.76" gradientTransform="matrix(9.08 0 0 8.47 6301.87 -1540.36)" xlink:href="#linear-gradient-3"/><linearGradient id="linear-gradient-12" x1="-653.87" y1="198.51" x2="-651.59" y2="200.4" gradientTransform="matrix(9.08 0 0 8.47 6301.87 -1540.36)" gradientUnits="userSpaceOnUse"><stop offset="0" stop-opacity="0.5"/><stop offset="0.49" stop-color="#fff" stop-opacity="0.5"/><stop offset="1" stop-opacity="0.5"/></linearGradient><linearGradient id="linear-gradient-13" x1="-650.15" y1="308.24" x2="-650.15" y2="307.24" gradientTransform="matrix(8.45 0 0 2.56 5868.32 -642.65)" gradientUnits="userSpaceOnUse"><stop offset="0" stop-opacity="0"/><stop offset="1"/></linearGradient><linearGradient id="linear-gradient-15" x1="-652.66" y1="-157.35" x2="-652.66" y2="-158.35" gradientTransform="matrix(9.06 0 0 -1.28 6287.81 -50.81)" xlink:href="#linear-gradient-13"/><linearGradient id="linear-gradient-16" x1="401.72" y1="711.77" x2="401.72" y2="710.46" gradientTransform="matrix(25.01 0 0 8.27 -9670.63 -5745.03)" gradientUnits="userSpaceOnUse"><stop offset="0" stop-color="#fff" stop-opacity="0.5"/><stop offset="1" stop-color="#a2a0b3" stop-opacity="0.5"/></linearGradient><linearGradient id="linear-gradient-17" x1="401.72" y1="711.33" x2="401.72" y2="712.17" gradientTransform="matrix(25.01 0 0 8.27 -9670.63 -5745.03)" xlink:href="#linear-gradient-3"/><linearGradient id="linear-gradient-18" x1="401.72" y1="711.88" x2="401.72" y2="710.88" gradientTransform="matrix(25.01 0 0 8.27 -9670.63 -5745.03)" gradientUnits="userSpaceOnUse"><stop offset="0" stop-color="#636d7f" stop-opacity="0.5"/><stop offset="1" stop-color="#202431" stop-opacity="0.5"/></linearGradient><linearGradient id="linear-gradient-19" x1="-666.92" y1="170.45" x2="-666.92" y2="170.25" gradientTransform="matrix(26.46 0 0 11.55 18023.3 -1829.52)" gradientUnits="userSpaceOnUse"><stop offset="0"/><stop offset="1" stop-opacity="0"/></linearGradient><linearGradient id="linear-gradient-20" x1="-4.51" y1="180.19" x2="498.83" y2="180.19" gradientUnits="userSpaceOnUse"><stop offset="0" stop-color="#186d69"/><stop offset="1" stop-color="#138c63"/></linearGradient><linearGradient id="linear-gradient-21" x1="-292.26" y1="105.2" x2="-239.85" y2="105.2" gradientTransform="rotate(-99.99 -15.194 -109.083)" gradientUnits="userSpaceOnUse"><stop offset="0" stop-color="#fff" stop-opacity="0.6"/><stop offset="1" stop-color="#fff"/></linearGradient><clipPath id="clip-path"><circle cx="239.36" cy="100.8" r="26.2" transform="rotate(-80.01 239.36 100.806)" style="fill:none"/></clipPath><linearGradient id="linear-gradient-22" x1="-534.5" y1="-625.06" x2="-572.46" y2="-587.1" gradientTransform="matrix(.94 -.35 -.35 -.94 534.38 -686.17)" gradientUnits="userSpaceOnUse"><stop offset="0" stop-color="#fff" stop-opacity="0"/><stop offset="1" stop-color="#e9ebed"/></linearGradient><linearGradient id="linear-gradient-23" x1="-247.06" y1="81.84" x2="-237.34" y2="81.84" gradientTransform="rotate(180 -13.35 103)" gradientUnits="userSpaceOnUse"><stop offset="0" stop-color="#d2d3d9"/><stop offset="1" stop-color="#fff"/></linearGradient><linearGradient id="linear-gradient-24" x1="-246.14" y1="61.97" x2="-199.46" y2="61.97" xlink:href="#linear-gradient-23"/><linearGradient id="linear-gradient-25" x1="-245.84" y1="60.09" x2="-203.75" y2="60.09" gradientTransform="rotate(180 -13.35 103)" gradientUnits="userSpaceOnUse"><stop offset="0" stop-color="#fff"/><stop offset="1" stop-color="#9fa0a5"/></linearGradient><linearGradient id="linear-gradient-26" x1="172.65" y1="159.74" x2="188.55" y2="159.74" gradientUnits="userSpaceOnUse"><stop offset="0" stop-color="#ff9271"/><stop offset="1" stop-color="#ffd871"/></linearGradient><linearGradient id="linear-gradient-27" x1="208.61" y1="100.23" x2="270.28" y2="100.23" xlink:href="#linear-gradient-26"/></defs><path id="Rectangle-14" style="fill:url(#linear-gradient)" d="M0 .6h474v204H0z"/><g id="Group"><path id="Bg" style="fill:none" d="M97 16h172.8v172.8H97z"/><g id="TV"><g id="Combined-Shape"><g id="path-5-link"><path id="path-5" d="M173.5 151.16h63.6a1.47 1.47 0 0 1 1.5 1.5 1.54 1.54 0 0 1-1.5 1.5H129.6a1.47 1.47 0 0 1-1.5-1.5 1.54 1.54 0 0 1 1.5-1.5h23.1c.8 0 13.2-.1 17.2-3.7a8.13 8.13 0 0 0 2.5-8.5h22.1s-2.1 4.9 1.7 8.5 17.2 3.7 17.2 3.7h-39.9z" style="fill:#343641"/></g><path d="M173.5 151.16h63.6a1.47 1.47 0 0 1 1.5 1.5 1.54 1.54 0 0 1-1.5 1.5H129.6a1.47 1.47 0 0 1-1.5-1.5 1.54 1.54 0 0 1 1.5-1.5h23.1c.8 0 13.2-.1 17.2-3.7a8.13 8.13 0 0 0 2.5-8.5h22.1s-2.1 4.9 1.7 8.5 17.2 3.7 17.2 3.7h-39.9z" style="fill:url(#linear-gradient-2)"/></g><path d="M106.6 53.66a3.12 3.12 0 0 1 3.1-3.1h147.4a3.12 3.12 0 0 1 3.1 3.1v82.9a3.12 3.12 0 0 1-3.1 3.1H109.7a3.12 3.12 0 0 1-3.1-3.1z"/><g id="Rectangle-8"><g id="Mask"><path id="path-6" d="M108.9 54.36a1.54 1.54 0 0 1 1.5-1.5h145.9a1.54 1.54 0 0 1 1.5 1.5v79.9a1.54 1.54 0 0 1-1.5 1.5H110.4a1.54 1.54 0 0 1-1.5-1.5z" style="fill:#24262e"/></g><g id="Clipped"><path id="Path" style="opacity:.07999999821186066;isolation:isolate;fill:url(#linear-gradient-3)" d="M108.99 52.93h147.64l.99 55.49-.33 28.73L108 60.2l.99-7.27z"/></g></g></g><path id="Shape" style="fill:#fff" d="M177.5 110l5.2-13.9-10.1-2.6 18.2-18.3-6.7 14 10.1 2.6-16.7 18.2z"/><path style="fill:none" d="M79 109h47.4v47.4H79z"/><g id="mobile"><g id="phone"><g id="path-12-link"><path id="path-12" d="M91.51 112.83a1.16 1.16 0 0 1 1.2-1.2h20.1a1.22 1.22 0 0 1 1.2 1.2v39.8a1.22 1.22 0 0 1-1.2 1.2h-20.1a1.29 1.29 0 0 1-1.2-1.2z"/></g><path d="M91.51 112.83a1.16 1.16 0 0 1 1.2-1.2h20.1a1.22 1.22 0 0 1 1.2 1.2v39.8a1.22 1.22 0 0 1-1.2 1.2h-20.1a1.29 1.29 0 0 1-1.2-1.2z" style="fill:#f2f4f5;fill-rule:evenodd"/><path d="M91.51 112.83a1.16 1.16 0 0 1 1.2-1.2h20.1a1.22 1.22 0 0 1 1.2 1.2v39.8a1.22 1.22 0 0 1-1.2 1.2h-20.1a1.29 1.29 0 0 1-1.2-1.2z" style="fill-opacity:.08000001311302185;fill-rule:evenodd;fill:url(#linear-gradient-4)"/><path d="M92.41 112.83v39.8a.22.22 0 0 0 .2.2h20.1a.22.22 0 0 0 .2-.2v-39.8a.22.22 0 0 0-.2-.2h-20c-.2-.1-.3 0-.3.2zm-.9 0a1.16 1.16 0 0 1 1.2-1.2h20.1a1.22 1.22 0 0 1 1.2 1.2v39.8a1.22 1.22 0 0 1-1.2 1.2h-20.1a1.29 1.29 0 0 1-1.2-1.2z" style="fill:url(#linear-gradient-5)"/><path d="M91.71 112.83v39.8a.9.9 0 0 0 .9.9h20.1a.9.9 0 0 0 .9-.9v-39.8a.9.9 0 0 0-.9-.9h-20a.92.92 0 0 0-1 .9zm-.2 0a1.16 1.16 0 0 1 1.2-1.2h20.1a1.22 1.22 0 0 1 1.2 1.2v39.8a1.22 1.22 0 0 1-1.2 1.2h-20.1a1.29 1.29 0 0 1-1.2-1.2z" style="fill:#ececef"/><path id="path-15" style="fill:#24262e" d="M92.44 115.14h20.6v32.8h-20.6z"/><path style="opacity:.07999999821186066;isolation:isolate;fill:url(#linear-gradient-6)" d="M92.54 115.16l20.39-.07.14 22.54-20.6-8.97.07-13.5z"/><path id="Line" d="M101.81 114.43h1.9a.5.5 0 0 0 0-1h-1.9a.5.5 0 0 0 0 1z" style="fill:#c7cdd2"/></g><path id="Rectangle-11" d="M104.41 150.53a1.6 1.6 0 1 1-1.6-1.6 1.64 1.64 0 0 1 1.6 1.6z" style="fill:#e2e4e6"/></g><path id="Shape-Copy" style="fill:#fff" d="M100.1 140l2-5.3-3.9-.9 7.1-7-2.6 5.3 3.9 1-6.5 6.9z"/><path style="fill:none" d="M206.2 36.8h159.6v159.6H206.2z"/><g id="Laptop"><path d="M230.87 89.65c0-3.5 2.5-6.3 5.7-6.3h98.8c3.1 0 5.7 2.8 5.7 6.3v52c0 3.5-2.5 6.3-5.7 6.3h-98.8c-3.1 0-5.7-2.8-5.7-6.3z" style="fill:#24262e"/><path style="opacity:.07999999821186066;isolation:isolate;fill:url(#linear-gradient-7)" d="M236.59 87.28l98.86.22-1.54 47.34-97.98-44.26.66-3.3z"/><g id="Group-3"><g id="path-24-link"><path id="path-24" d="M357 151.19a2.8 2.8 0 0 1-2.8 2.8H217.87a2.8 2.8 0 0 1-2.8-2.8v-2.8H357z"/></g><path d="M357 151.19a2.8 2.8 0 0 1-2.8 2.8H217.87a2.8 2.8 0 0 1-2.8-2.8v-2.8H357z" style="fill:#ececef;fill-rule:evenodd"/><path d="M357 151.19a2.8 2.8 0 0 1-2.8 2.8H217.87a2.8 2.8 0 0 1-2.8-2.8v-2.8H357z" style="fill-opacity:.08000001311302185;fill-rule:evenodd;fill:url(#linear-gradient-8)"/><g id="Rectangle-4"><g id="path-27-link"><path id="path-27" style="fill:#fff" d="M230.97 141.89h110l15.9 6.5h-141.8l15.9-6.5z"/></g><path style="fill:url(#radial-gradient)" d="M230.97 141.89h110l15.9 6.5h-141.8l15.9-6.5z"/></g><path d="M340.87 142.59h-109.8l-12.4 5.1h134.6zm-109.9-.7h110.1l15.8 6.5h-141.8z" style="fill:#ececef"/><path id="Rectangle-9" style="fill:#cbcbcf" d="M275.87 148.39h20.3l-1.7 1.4h-16.9l-1.7-1.4z"/></g></g><path style="fill:#fff" d="M280.7 131.6l5.2-13.9-10.1-2.6L294 96.8l-6.7 14 10.1 2.6-16.7 18.2z"/><g id="tablet"><g id="Tablet-2" data-name="Tablet"><path d="M332.4 105a1.31 1.31 0 0 1 1.2-1.3H367a1.24 1.24 0 0 1 1.2 1.3v47.7a1.31 1.31 0 0 1-1.2 1.3h-33.4a1.31 1.31 0 0 1-1.2-1.3z" style="fill:#f2f4f5"/><path d="M333.4 105v47.7a.22.22 0 0 0 .2.2H367a.22.22 0 0 0 .2-.2V105a.22.22 0 0 0-.2-.2h-33.4c-.1-.09-.2.01-.2.2zm-1 0a1.31 1.31 0 0 1 1.2-1.3H367a1.24 1.24 0 0 1 1.2 1.3v47.7a1.31 1.31 0 0 1-1.2 1.3h-33.4a1.31 1.31 0 0 1-1.2-1.3z" style="fill:url(#linear-gradient-9)"/><path d="M332.6 105v47.7a.94.94 0 0 0 1 1H367a.94.94 0 0 0 1-1V105a.94.94 0 0 0-1-1h-33.4a1 1 0 0 0-1 1zm-.2 0a1.31 1.31 0 0 1 1.2-1.3H367a1.24 1.24 0 0 1 1.2 1.3v47.7a1.31 1.31 0 0 1-1.2 1.3h-33.4a1.31 1.31 0 0 1-1.2-1.3z" style="fill:#c7cdd2"/><path id="path-30" style="fill:#24262e" d="M334.75 107.74h31.2v41.2h-31.2z"/><path style="opacity:.07999999821186066;isolation:isolate;fill:url(#linear-gradient-10)" d="M334.79 107.7h31.16v27.08l-31.21-13.43.05-13.65z"/><path d="M351.9 151.41a1.6 1.6 0 1 1-1.6-1.6 1.58 1.58 0 0 1 1.6 1.6z" style="fill:#dfe0e1"/></g></g><path style="fill:#fff" d="M348.1 141.2l2.9-7.7-5.6-1.4 10.1-10.1-3.7 7.7 5.6 1.4-9.3 10.1z"/><path style="fill:none" d="M358.6 118.8h36v36h-36z"/><path id="Rectangle-6" d="M370 121a4.33 4.33 0 0 1 2.6-1.1h8a4.33 4.33 0 0 1 2.6 1.1l5.6 6c.6.6.4 1.1-.5 1.1h-23.4c-.8 0-1.1-.5-.5-1.1z" style="fill:#fff"/><g id="bottom"><g id="Rectangle-20"><g id="path-36-link"><path id="path-36" style="fill:#a7a9b0" d="M372.55 143.91h8.1l.5 8.5h-9.1l.5-8.5z"/></g><path style="fill-opacity:.3700000047683716;fill:url(#linear-gradient-11)" d="M372.55 143.91h8.1l.5 8.5h-9.1l.5-8.5z"/><path style="fill:url(#linear-gradient-12)" d="M372.55 143.91h8.1l.5 8.5h-9.1l.5-8.5z"/></g><path id="Rectangle-27" style="fill-opacity:.20000000298023224;fill:url(#linear-gradient-13)" d="M372.45 144.61l8.2.1.2 2.4-8.5.1.1-2.6z"/><path style="fill-opacity:.20000000298023224;fill:url(#linear-gradient-13)" d="M372.45 144.61l8.2.1.2 2.4-8.5.1.1-2.6z"/><path style="fill-opacity:.38999998569488525;opacity:.54339998960495;isolation:isolate;fill:url(#linear-gradient-15)" d="M372.05 152.21l9.1.1-.2-1.2-8.7-.1-.2 1.2z"/></g><g id="path-42-link"><path id="path-42" d="M383.18 144.51a4.33 4.33 0 0 1-2.6 1.1h-8a4.33 4.33 0 0 1-2.6-1.1l-5.6-6c-.6-.6-.4-1.1.5-1.1h23.4c.8 0 1.1.5.5 1.1z" style="fill:#f2f4f5"/></g><path d="M383.18 144.51a4.33 4.33 0 0 1-2.6 1.1h-8a4.33 4.33 0 0 1-2.6-1.1l-5.6-6c-.6-.6-.4-1.1.5-1.1h23.4c.8 0 1.1.5.5 1.1z" style="fill-opacity:.800000011920929;fill:url(#linear-gradient-16)"/><path d="M383.18 144.51a4.33 4.33 0 0 1-2.6 1.1h-8a4.33 4.33 0 0 1-2.6-1.1l-5.6-6c-.6-.6-.4-1.1.5-1.1h23.4c.8 0 1.1.5.5 1.1z" style="fill:url(#linear-gradient-17)"/><path d="M383.18 144.51a4.33 4.33 0 0 1-2.6 1.1h-8a4.33 4.33 0 0 1-2.6-1.1l-5.6-6c-.6-.6-.4-1.1.5-1.1h23.4c.8 0 1.1.5.5 1.1z" style="fill-opacity:.30000001192092896;fill:url(#linear-gradient-18)"/><path id="Fill-25" style="fill:#9ba4aa" d="M365.3 153.3h22.8v-1.4h-22.8v1.4z"/><path id="Fill-27" style="fill:#868f96" d="M366.7 153.7h20v-.5h-20v.5z"/><g id="Path-19"><g id="path-44-link"><path id="path-44" d="M365.26 127h22.6a1.9 1.9 0 0 1 1.9 1.9v7.7a1.9 1.9 0 0 1-1.9 1.9h-22.6a1.9 1.9 0 0 1-1.9-1.9v-7.7a2 2 0 0 1 1.9-1.9z" style="fill:#282a30"/></g><path d="M365.26 127h22.6a1.9 1.9 0 0 1 1.9 1.9v7.7a1.9 1.9 0 0 1-1.9 1.9h-22.6a1.9 1.9 0 0 1-1.9-1.9v-7.7a2 2 0 0 1 1.9-1.9z" style="fill-opacity:.8999999761581421;fill:url(#linear-gradient-19)"/><path style="fill:#fff;fill-opacity:.10000000149011612" d="M363.52 128.4l26.1 9.52.22-10.9-25.54.06-.78 1.32z"/></g><path id="Stroke-19" d="M373.8 132.9a3.1 3.1 0 1 1 3.1 3.1 3.12 3.12 0 0 1-3.1-3.1z" style="fill:none;stroke:#868f96;stroke-width:.5px;opacity:.450300008058548;isolation:isolate"/><path id="Fill-21" d="M374.8 132.9a2.11 2.11 0 0 1 2.1-2.1 2.1 2.1 0 1 1 0 4.2 2.18 2.18 0 0 1-2.1-2.1" style="fill:#646a70"/><path id="Rectangle-19" d="M375.3 137.2h3.2a.47.47 0 0 1 .5.5.47.47 0 0 1-.5.5h-3.2a.47.47 0 0 1-.5-.5.47.47 0 0 1 .5-.5z" style="fill:#b6b6b6;fill-opacity:0"/></g><path style="fill:url(#linear-gradient-20)" d="M-4.51 153.77h503.34v52.84H-4.51z"/><circle cx="239.36" cy="100.8" r="26.2" transform="rotate(-80.01 239.36 100.806)" style="opacity:.4099999964237213;isolation:isolate;fill:url(#linear-gradient-21)"/><g style="clip-path:url(#clip-path)"><path d="M255.89 66.75l-51.66 19.51L277 119.15l-18.71-49.43c-1.49-3.38-.66-3.63-2.4-2.97z" style="opacity:.699999988079071;isolation:isolate;fill:url(#linear-gradient-22)"/></g><path style="fill:url(#linear-gradient-23)" d="M215.97 128.99l4.38-4.3-5.37-5.37-4.3 4.38 5.29 5.29z"/><path style="fill:url(#linear-gradient-24)" d="M184.06 167.34l35.38-35.37-11.24-11.25-35.38 35.38 11.24 11.24z"/><path style="fill:url(#linear-gradient-25)" d="M184.5 167.42l34.65-34.64-6.66-8.38-35.38 35.38 7.39 7.64z"/><path style="fill:url(#linear-gradient-26)" d="M188.55 163.36l-4.13 4.38-11.77-11.61 4.39-4.38 11.51 11.61z"/><path d="M208.61 100.23a30.84 30.84 0 1 0 30.84-30.84 30.84 30.84 0 0 0-30.84 30.84zm5.71 0A25.13 25.13 0 1 1 239.45 125a24.94 24.94 0 0 1-25.13-24.77z" style="fill:url(#linear-gradient-27)"/></svg>