<svg id="Layer_1" data-name="Layer 1" xmlns="http://www.w3.org/2000/svg" xmlns:xlink="http://www.w3.org/1999/xlink" viewBox="0 0 474 205"><defs><linearGradient id="linear-gradient" x1="-157.86" y1="407.63" x2="-156.67" y2="407.42" gradientTransform="matrix(474 0 0 -204 74734 83233.57)" gradientUnits="userSpaceOnUse"><stop offset="0" stop-color="#6399da"/><stop offset="1" stop-color="#ae62cf"/></linearGradient><linearGradient id="linear-gradient-2" x1="-0.11" y1="175.91" x2="474.61" y2="175.91" gradientUnits="userSpaceOnUse"><stop offset="0" stop-color="#68529e"/><stop offset="1" stop-color="#738dd8"/></linearGradient><linearGradient id="linear-gradient-3" x1="-156.66" y1="408.14" x2="-156.66" y2="406.46" gradientTransform="matrix(121.27 53.99 42.08 -94.52 2059.41 46976.1)" gradientUnits="userSpaceOnUse"><stop offset="0" stop-color="#fff" stop-opacity="0"/><stop offset="1" stop-color="#fff"/></linearGradient><linearGradient id="linear-gradient-4" x1="-157.78" y1="369" x2="-156.47" y2="369.01" gradientTransform="matrix(141.87 0 0 -5.51 22472 2198.77)" gradientUnits="userSpaceOnUse"><stop offset="0" stop-color="#fff" stop-opacity="0.5"/><stop offset="1" stop-color="#2d2c3e" stop-opacity="0.5"/></linearGradient><radialGradient id="radial-gradient" cx="-124.82" cy="420.51" r="9.17" gradientTransform="matrix(0 6.54 6.54 0 -2492.42 966.75)" gradientUnits="userSpaceOnUse"><stop offset="0" stop-opacity="0.1"/><stop offset="1" stop-opacity="0"/></radialGradient><clipPath id="clip-path"><path style="fill:none" d="M82.68 58.65h164.7v85.87H82.68z"/></clipPath><clipPath id="clip-path-2"><circle cx="167" cy="108.62" r="97.96" style="fill:none"/></clipPath><linearGradient id="linear-gradient-5" x1="166" y1="81.72" x2="166" y2="254.13" gradientTransform="matrix(1 0 0 -1 0 206)" gradientUnits="userSpaceOnUse"><stop offset="0" stop-color="#d4f2ff"/><stop offset="1" stop-color="#ade4f7"/></linearGradient><linearGradient id="linear-gradient-6" x1="52.06" y1="51.38" x2="151.34" y2="51.38" gradientTransform="matrix(1 0 0 -1 0 206)" gradientUnits="userSpaceOnUse"><stop offset="0" stop-color="#d4f2ff"/><stop offset="1" stop-color="#fff"/></linearGradient><linearGradient id="linear-gradient-7" x1="6764.44" y1="59.64" x2="6863.73" y2="59.64" gradientTransform="rotate(180 3527.1 103)" xlink:href="#linear-gradient-6"/><linearGradient id="linear-gradient-8" x1="59.37" y1="168.26" x2="272.62" y2="168.26" gradientTransform="matrix(1 0 0 -1 0 206)" gradientUnits="userSpaceOnUse"><stop offset="0" stop-color="#d4f2ff"/><stop offset="1" stop-color="#ffd871"/></linearGradient><linearGradient id="linear-gradient-9" x1="76.37" y1="26.58" x2="272.62" y2="26.58" xlink:href="#linear-gradient-8"/><linearGradient id="linear-gradient-10" x1="59.37" y1="139.6" x2="272.62" y2="139.6" xlink:href="#linear-gradient-8"/><linearGradient id="linear-gradient-11" x1="183.26" y1="193.89" x2="149.4" y2="0.88" gradientTransform="matrix(1 0 0 -1 0 206)" gradientUnits="userSpaceOnUse"><stop offset="0" stop-color="#1d3167"/><stop offset="1" stop-color="#050033"/></linearGradient><clipPath id="clip-path-3"><path transform="rotate(-45 195.397 66.384)" style="fill:none" d="M163.17 34.14h64.48v64.48h-64.48z"/></clipPath><clipPath id="clip-path-4"><path d="M170.59 65.3c-5.24 0-9.48 15.63-9.48 20.87v62.63h19V86.18c-.03-5.24-4.28-20.88-9.52-20.88z" style="fill:none"/></clipPath><pattern id="New_Pattern_Swatch_38" data-name="New Pattern Swatch 38" width="28.8" height="28.8" patternTransform="matrix(.07 0 0 -.07 298.74 205.85)" patternUnits="userSpaceOnUse"><path style="fill:none" d="M0 0h28.8v28.8H0z"/><path style="fill:none" d="M0 0h28.8v28.8H0z"/><path d="M-.72 31.8l-2.6-4.51A.82.82 0 0 1-3 26.16a.8.8 0 0 1 .4-.11h5.21a.83.83 0 0 1 .82.84.8.8 0 0 1-.11.4L.72 31.8a.83.83 0 0 1-1.13.31.84.84 0 0 1-.31-.31zM13.68 31.8l-2.6-4.51a.82.82 0 0 1 .31-1.13.8.8 0 0 1 .4-.11H17a.83.83 0 0 1 .82.84.8.8 0 0 1-.11.4l-2.59 4.51a.83.83 0 0 1-1.13.31.84.84 0 0 1-.31-.31zM6.48 24.58l-2.6-4.52a.83.83 0 0 1 .28-1.14.82.82 0 0 1 .43-.12h5.22a.83.83 0 0 1 .82.84.8.8 0 0 1-.11.4l-2.6 4.54a.83.83 0 0 1-1.13.31.84.84 0 0 1-.31-.31zM20.88 24.58l-2.6-4.52a.82.82 0 0 1 .25-1.13.78.78 0 0 1 .47-.13h5.22a.83.83 0 0 1 .82.84.8.8 0 0 1-.11.4l-2.62 4.54a.83.83 0 0 1-1.14.29.81.81 0 0 1-.29-.29zM6.48 10.18l-2.6-4.51a.82.82 0 0 1 .71-1.24h5.22a.83.83 0 0 1 .83.81.82.82 0 0 1-.12.43l-2.6 4.51a.83.83 0 0 1-1.13.31.84.84 0 0 1-.31-.31zM20.88 10.18l-2.6-4.51a.82.82 0 0 1 .28-1.12.88.88 0 0 1 .44-.12h5.22a.83.83 0 0 1 .83.81.82.82 0 0 1-.12.43l-2.61 4.51a.83.83 0 0 1-1.13.31.84.84 0 0 1-.31-.31zM28.08 31.8l-2.6-4.51a.82.82 0 0 1 .31-1.13.8.8 0 0 1 .4-.11h5.22a.83.83 0 0 1 .82.84.8.8 0 0 1-.11.4l-2.6 4.51a.83.83 0 0 1-1.13.31.84.84 0 0 1-.31-.31zM-.72 17.39l-2.6-4.52A.82.82 0 0 1-3 11.74a.8.8 0 0 1 .4-.11h5.21a.83.83 0 0 1 .82.84.8.8 0 0 1-.11.4l-2.6 4.52a.83.83 0 0 1-1.13.31.84.84 0 0 1-.31-.31zM13.68 17.39l-2.6-4.52a.82.82 0 0 1 .31-1.13.8.8 0 0 1 .4-.11H17a.83.83 0 0 1 .82.84.8.8 0 0 1-.11.4l-2.6 4.52a.83.83 0 0 1-1.14.29.81.81 0 0 1-.29-.29zM28.08 17.39l-2.6-4.52a.82.82 0 0 1 .31-1.13.8.8 0 0 1 .4-.11h5.22a.83.83 0 0 1 .82.84.8.8 0 0 1-.11.4l-2.6 4.52a.83.83 0 0 1-1.13.31.84.84 0 0 1-.31-.31zM-.72 3l-2.6-4.52A.82.82 0 0 1-3-2.67a.8.8 0 0 1 .4-.11h5.21a.83.83 0 0 1 .82.84.8.8 0 0 1-.11.4L.72 3a.83.83 0 0 1-1.13.31A.84.84 0 0 1-.72 3zM13.68 3l-2.6-4.52a.82.82 0 0 1 .31-1.13.8.8 0 0 1 .4-.11H17a.83.83 0 0 1 .82.84.8.8 0 0 1-.11.4L15.11 3a.83.83 0 0 1-1.11.27.81.81 0 0 1-.32-.27zM28.08 3l-2.6-4.52a.82.82 0 0 1 .31-1.13.8.8 0 0 1 .4-.11h5.22a.83.83 0 0 1 .82.84.8.8 0 0 1-.11.4L29.52 3a.83.83 0 0 1-1.13.31.84.84 0 0 1-.31-.31z" style="fill:#106a5e"/></pattern><pattern id="New_Pattern_Swatch_38-3" data-name="New Pattern Swatch 38-3" width="28.8" height="28.8" patternTransform="matrix(.07 0 0 -.07 299.55 205.85)" patternUnits="userSpaceOnUse"><path style="fill:none" d="M0 0h28.8v28.8H0z"/><path style="fill:none" d="M0 0h28.8v28.8H0z"/><path d="M-.72 31.8l-2.6-4.51A.82.82 0 0 1-3 26.16a.8.8 0 0 1 .4-.11h5.21a.83.83 0 0 1 .82.84.8.8 0 0 1-.11.4L.72 31.8a.83.83 0 0 1-1.13.31.84.84 0 0 1-.31-.31zM13.68 31.8l-2.6-4.51a.82.82 0 0 1 .31-1.13.8.8 0 0 1 .4-.11H17a.83.83 0 0 1 .82.84.8.8 0 0 1-.11.4l-2.59 4.51a.83.83 0 0 1-1.13.31.84.84 0 0 1-.31-.31zM6.48 24.58l-2.6-4.52a.83.83 0 0 1 .28-1.14.82.82 0 0 1 .43-.12h5.22a.83.83 0 0 1 .82.84.8.8 0 0 1-.11.4l-2.6 4.54a.83.83 0 0 1-1.13.31.84.84 0 0 1-.31-.31zM20.88 24.58l-2.6-4.52a.82.82 0 0 1 .25-1.13.78.78 0 0 1 .47-.13h5.22a.83.83 0 0 1 .82.84.8.8 0 0 1-.11.4l-2.62 4.54a.83.83 0 0 1-1.14.29.81.81 0 0 1-.29-.29zM6.48 10.18l-2.6-4.51a.82.82 0 0 1 .71-1.24h5.22a.83.83 0 0 1 .83.81.82.82 0 0 1-.12.43l-2.6 4.51a.83.83 0 0 1-1.13.31.84.84 0 0 1-.31-.31zM20.88 10.18l-2.6-4.51a.82.82 0 0 1 .28-1.12.88.88 0 0 1 .44-.12h5.22a.83.83 0 0 1 .83.81.82.82 0 0 1-.12.43l-2.61 4.51a.83.83 0 0 1-1.13.31.84.84 0 0 1-.31-.31zM28.08 31.8l-2.6-4.51a.82.82 0 0 1 .31-1.13.8.8 0 0 1 .4-.11h5.22a.83.83 0 0 1 .82.84.8.8 0 0 1-.11.4l-2.6 4.51a.83.83 0 0 1-1.13.31.84.84 0 0 1-.31-.31zM-.72 17.39l-2.6-4.52A.82.82 0 0 1-3 11.74a.8.8 0 0 1 .4-.11h5.21a.83.83 0 0 1 .82.84.8.8 0 0 1-.11.4l-2.6 4.52a.83.83 0 0 1-1.13.31.84.84 0 0 1-.31-.31zM13.68 17.39l-2.6-4.52a.82.82 0 0 1 .31-1.13.8.8 0 0 1 .4-.11H17a.83.83 0 0 1 .82.84.8.8 0 0 1-.11.4l-2.6 4.52a.83.83 0 0 1-1.14.29.81.81 0 0 1-.29-.29zM28.08 17.39l-2.6-4.52a.82.82 0 0 1 .31-1.13.8.8 0 0 1 .4-.11h5.22a.83.83 0 0 1 .82.84.8.8 0 0 1-.11.4l-2.6 4.52a.83.83 0 0 1-1.13.31.84.84 0 0 1-.31-.31zM-.72 3l-2.6-4.52A.82.82 0 0 1-3-2.67a.8.8 0 0 1 .4-.11h5.21a.83.83 0 0 1 .82.84.8.8 0 0 1-.11.4L.72 3a.83.83 0 0 1-1.13.31A.84.84 0 0 1-.72 3zM13.68 3l-2.6-4.52a.82.82 0 0 1 .31-1.13.8.8 0 0 1 .4-.11H17a.83.83 0 0 1 .82.84.8.8 0 0 1-.11.4L15.11 3a.83.83 0 0 1-1.11.27.81.81 0 0 1-.32-.27zM28.08 3l-2.6-4.52a.82.82 0 0 1 .31-1.13.8.8 0 0 1 .4-.11h5.22a.83.83 0 0 1 .82.84.8.8 0 0 1-.11.4L29.52 3a.83.83 0 0 1-1.13.31.84.84 0 0 1-.31-.31z" style="fill:#106a5e"/></pattern><pattern id="New_Pattern_Swatch_38-5" data-name="New Pattern Swatch 38-5" width="28.8" height="28.8" patternTransform="matrix(.07 0 0 -.07 298.74 205.04)" patternUnits="userSpaceOnUse"><path style="fill:none" d="M0 0h28.8v28.8H0z"/><path style="fill:none" d="M0 0h28.8v28.8H0z"/><path d="M-.72 31.8l-2.6-4.51A.82.82 0 0 1-3 26.16a.8.8 0 0 1 .4-.11h5.21a.83.83 0 0 1 .82.84.8.8 0 0 1-.11.4L.72 31.8a.83.83 0 0 1-1.13.31.84.84 0 0 1-.31-.31zM13.68 31.8l-2.6-4.51a.82.82 0 0 1 .31-1.13.8.8 0 0 1 .4-.11H17a.83.83 0 0 1 .82.84.8.8 0 0 1-.11.4l-2.59 4.51a.83.83 0 0 1-1.13.31.84.84 0 0 1-.31-.31zM6.48 24.58l-2.6-4.52a.83.83 0 0 1 .28-1.14.82.82 0 0 1 .43-.12h5.22a.83.83 0 0 1 .82.84.8.8 0 0 1-.11.4l-2.6 4.54a.83.83 0 0 1-1.13.31.84.84 0 0 1-.31-.31zM20.88 24.58l-2.6-4.52a.82.82 0 0 1 .25-1.13.78.78 0 0 1 .47-.13h5.22a.83.83 0 0 1 .82.84.8.8 0 0 1-.11.4l-2.62 4.54a.83.83 0 0 1-1.14.29.81.81 0 0 1-.29-.29zM6.48 10.18l-2.6-4.51a.82.82 0 0 1 .71-1.24h5.22a.83.83 0 0 1 .83.81.82.82 0 0 1-.12.43l-2.6 4.51a.83.83 0 0 1-1.13.31.84.84 0 0 1-.31-.31zM20.88 10.18l-2.6-4.51a.82.82 0 0 1 .28-1.12.88.88 0 0 1 .44-.12h5.22a.83.83 0 0 1 .83.81.82.82 0 0 1-.12.43l-2.61 4.51a.83.83 0 0 1-1.13.31.84.84 0 0 1-.31-.31zM28.08 31.8l-2.6-4.51a.82.82 0 0 1 .31-1.13.8.8 0 0 1 .4-.11h5.22a.83.83 0 0 1 .82.84.8.8 0 0 1-.11.4l-2.6 4.51a.83.83 0 0 1-1.13.31.84.84 0 0 1-.31-.31zM-.72 17.39l-2.6-4.52A.82.82 0 0 1-3 11.74a.8.8 0 0 1 .4-.11h5.21a.83.83 0 0 1 .82.84.8.8 0 0 1-.11.4l-2.6 4.52a.83.83 0 0 1-1.13.31.84.84 0 0 1-.31-.31zM13.68 17.39l-2.6-4.52a.82.82 0 0 1 .31-1.13.8.8 0 0 1 .4-.11H17a.83.83 0 0 1 .82.84.8.8 0 0 1-.11.4l-2.6 4.52a.83.83 0 0 1-1.14.29.81.81 0 0 1-.29-.29zM28.08 17.39l-2.6-4.52a.82.82 0 0 1 .31-1.13.8.8 0 0 1 .4-.11h5.22a.83.83 0 0 1 .82.84.8.8 0 0 1-.11.4l-2.6 4.52a.83.83 0 0 1-1.13.31.84.84 0 0 1-.31-.31zM-.72 3l-2.6-4.52A.82.82 0 0 1-3-2.67a.8.8 0 0 1 .4-.11h5.21a.83.83 0 0 1 .82.84.8.8 0 0 1-.11.4L.72 3a.83.83 0 0 1-1.13.31A.84.84 0 0 1-.72 3zM13.68 3l-2.6-4.52a.82.82 0 0 1 .31-1.13.8.8 0 0 1 .4-.11H17a.83.83 0 0 1 .82.84.8.8 0 0 1-.11.4L15.11 3a.83.83 0 0 1-1.11.27.81.81 0 0 1-.32-.27zM28.08 3l-2.6-4.52a.82.82 0 0 1 .31-1.13.8.8 0 0 1 .4-.11h5.22a.83.83 0 0 1 .82.84.8.8 0 0 1-.11.4L29.52 3a.83.83 0 0 1-1.13.31.84.84 0 0 1-.31-.31z" style="fill:#106a5e"/></pattern><pattern id="New_Pattern_Swatch_38-7" data-name="New Pattern Swatch 38-7" width="28.8" height="28.8" patternTransform="matrix(.07 0 0 -.07 299.55 205.04)" patternUnits="userSpaceOnUse"><path style="fill:none" d="M0 0h28.8v28.8H0z"/><path style="fill:none" d="M0 0h28.8v28.8H0z"/><path d="M-.72 31.8l-2.6-4.51A.82.82 0 0 1-3 26.16a.8.8 0 0 1 .4-.11h5.21a.83.83 0 0 1 .82.84.8.8 0 0 1-.11.4L.72 31.8a.83.83 0 0 1-1.13.31.84.84 0 0 1-.31-.31zM13.68 31.8l-2.6-4.51a.82.82 0 0 1 .31-1.13.8.8 0 0 1 .4-.11H17a.83.83 0 0 1 .82.84.8.8 0 0 1-.11.4l-2.59 4.51a.83.83 0 0 1-1.13.31.84.84 0 0 1-.31-.31zM6.48 24.58l-2.6-4.52a.83.83 0 0 1 .28-1.14.82.82 0 0 1 .43-.12h5.22a.83.83 0 0 1 .82.84.8.8 0 0 1-.11.4l-2.6 4.54a.83.83 0 0 1-1.13.31.84.84 0 0 1-.31-.31zM20.88 24.58l-2.6-4.52a.82.82 0 0 1 .25-1.13.78.78 0 0 1 .47-.13h5.22a.83.83 0 0 1 .82.84.8.8 0 0 1-.11.4l-2.62 4.54a.83.83 0 0 1-1.14.29.81.81 0 0 1-.29-.29zM6.48 10.18l-2.6-4.51a.82.82 0 0 1 .71-1.24h5.22a.83.83 0 0 1 .83.81.82.82 0 0 1-.12.43l-2.6 4.51a.83.83 0 0 1-1.13.31.84.84 0 0 1-.31-.31zM20.88 10.18l-2.6-4.51a.82.82 0 0 1 .28-1.12.88.88 0 0 1 .44-.12h5.22a.83.83 0 0 1 .83.81.82.82 0 0 1-.12.43l-2.61 4.51a.83.83 0 0 1-1.13.31.84.84 0 0 1-.31-.31zM28.08 31.8l-2.6-4.51a.82.82 0 0 1 .31-1.13.8.8 0 0 1 .4-.11h5.22a.83.83 0 0 1 .82.84.8.8 0 0 1-.11.4l-2.6 4.51a.83.83 0 0 1-1.13.31.84.84 0 0 1-.31-.31zM-.72 17.39l-2.6-4.52A.82.82 0 0 1-3 11.74a.8.8 0 0 1 .4-.11h5.21a.83.83 0 0 1 .82.84.8.8 0 0 1-.11.4l-2.6 4.52a.83.83 0 0 1-1.13.31.84.84 0 0 1-.31-.31zM13.68 17.39l-2.6-4.52a.82.82 0 0 1 .31-1.13.8.8 0 0 1 .4-.11H17a.83.83 0 0 1 .82.84.8.8 0 0 1-.11.4l-2.6 4.52a.83.83 0 0 1-1.14.29.81.81 0 0 1-.29-.29zM28.08 17.39l-2.6-4.52a.82.82 0 0 1 .31-1.13.8.8 0 0 1 .4-.11h5.22a.83.83 0 0 1 .82.84.8.8 0 0 1-.11.4l-2.6 4.52a.83.83 0 0 1-1.13.31.84.84 0 0 1-.31-.31zM-.72 3l-2.6-4.52A.82.82 0 0 1-3-2.67a.8.8 0 0 1 .4-.11h5.21a.83.83 0 0 1 .82.84.8.8 0 0 1-.11.4L.72 3a.83.83 0 0 1-1.13.31A.84.84 0 0 1-.72 3zM13.68 3l-2.6-4.52a.82.82 0 0 1 .31-1.13.8.8 0 0 1 .4-.11H17a.83.83 0 0 1 .82.84.8.8 0 0 1-.11.4L15.11 3a.83.83 0 0 1-1.11.27.81.81 0 0 1-.32-.27zM28.08 3l-2.6-4.52a.82.82 0 0 1 .31-1.13.8.8 0 0 1 .4-.11h5.22a.83.83 0 0 1 .82.84.8.8 0 0 1-.11.4L29.52 3a.83.83 0 0 1-1.13.31.84.84 0 0 1-.31-.31z" style="fill:#106a5e"/></pattern><linearGradient id="linear-gradient-12" x1="-674.08" y1="-54.99" x2="-658.8" y2="-76.78" gradientTransform="matrix(.71 .71 .71 -.71 632.83 490.22)" gradientUnits="userSpaceOnUse"><stop offset="0" stop-color="#65d0a7"/><stop offset="1" stop-color="#4dc4d6"/></linearGradient><linearGradient id="linear-gradient-13" x1="116.18" y1="134.72" x2="113.08" y2="117.04" gradientTransform="matrix(1 0 0 -1 0 206)" xlink:href="#linear-gradient-12"/><linearGradient id="linear-gradient-14" x1="207.29" y1="128.07" x2="218.47" y2="128.07" gradientTransform="matrix(1 0 0 -1 0 206)" gradientUnits="userSpaceOnUse"><stop offset="0" stop-color="#ff9271"/><stop offset="1" stop-color="#ffd871"/></linearGradient><clipPath id="clip-path-5"><path style="fill:none" d="M110.86 60.98H236.8v88.73H110.86z"/></clipPath><mask id="mask-2" x="-37.88" y="58.45" width="266.38" height="150.06" maskUnits="userSpaceOnUse"><g id="mask-5"><path id="path-4" style="fill:#fff" d="M-37.88 58.45H228.5v150.06H-37.88z"/></g></mask><linearGradient id="linear-gradient-15" x1="-163.07" y1="406.48" x2="-163.07" y2="406.93" gradientTransform="matrix(25.57 0 0 -88.63 4341.74 36188.12)" gradientUnits="userSpaceOnUse"><stop offset="0" stop-color="#f6931d"/><stop offset="1" stop-color="#ed1c23"/></linearGradient><mask id="mask-3" x="166.15" y="120.66" width="11.42" height="120.44" maskUnits="userSpaceOnUse"><g id="mask-10"><path id="path-9" d="M171.83 160h5.68c-.32-1.22-.62-2.44-.91-3.67-2.95-12.67-3.08-22.66-2.94-33.73-.09 0-1.15-2-1.23-2h-1.2c-.08 0-1.09 1.79-1.17 1.79.13 11.07-.05 21.22-3 33.89-.29 1.23-.59 2.45-.91 3.67z" style="fill:#fff;fill-rule:evenodd"/></g></mask><linearGradient id="linear-gradient-16" x1="-163.08" y1="407.87" x2="-163.08" y2="408.32" gradientTransform="matrix(25.57 0 0 -266.98 4341.9 109135.42)" gradientUnits="userSpaceOnUse"><stop offset="0" stop-color="#fbed21"/><stop offset="1" stop-color="#fbaf3b"/></linearGradient><linearGradient id="linear-gradient-17" x1="-162.7" y1="406.48" x2="-162.7" y2="406.93" gradientTransform="matrix(25.57 0 0 -88.63 4324.33 36188.12)" xlink:href="#linear-gradient-15"/><mask id="mask-4" x="158.36" y="112.62" width="11.41" height="118.53" maskUnits="userSpaceOnUse"><g id="mask-17"><path id="path-16" d="M164.1 160h5.67c-.31-1.22-.61-2.44-.9-3.67-3-12.67-3.08-22.66-3-33.73-.08 0-1.14-2-1.23-2h-1.14c-.08 0-1.09 1.79-1.18 1.79.14 11.07 0 21.22-3 33.89-.28 1.23-.59 2.45-.9 3.67z" style="fill:#fff;fill-rule:evenodd"/></g></mask><linearGradient id="linear-gradient-18" x1="-162.69" y1="407.82" x2="-162.69" y2="408.27" gradientTransform="matrix(25.57 0 0 -266.98 4324.19 109113.03)" xlink:href="#linear-gradient-16"/><mask id="mask-5-2" x="167.78" y="66.5" width="6.1" height="53.63" maskUnits="userSpaceOnUse"><g id="mask-21"><path id="path-20" d="M167.78 120.12h6.1V79.9c0-3.36-2.73-13.4-6.1-13.4z" style="fill:#fff;fill-rule:evenodd"/></g></mask><linearGradient id="linear-gradient-19" x1="-167.8" y1="406.85" x2="-167.78" y2="406.7" gradientTransform="matrix(13.75 0 0 -120.79 2477.04 49219.35)" gradientUnits="userSpaceOnUse"><stop offset="0" stop-color="#fff"/><stop offset="1" stop-color="#ebedef"/></linearGradient><linearGradient id="linear-gradient-20" x1="-162.81" y1="401.7" x2="-162.48" y2="401.31" gradientTransform="matrix(27 0 0 -27 4557 10953)" gradientUnits="userSpaceOnUse"><stop offset="0"/><stop offset="1" stop-color="blue"/></linearGradient><linearGradient id="linear-gradient-21" x1="-162.81" y1="401.7" x2="-162.48" y2="401.31" gradientTransform="matrix(27 0 0 -27 4557 10953)" gradientUnits="userSpaceOnUse"><stop offset="0" stop-color="#57c2be"/><stop offset="1" stop-color="#fff"/></linearGradient><mask id="mask-6" x="146.94" y="84.37" width="14.74" height="34.31" maskUnits="userSpaceOnUse"><g id="mask-26"><path id="path-25" d="M160.4 89.81l-.22 2.59a16.29 16.29 0 0 1-4.31 9.75l-6.31 6.79a9.8 9.8 0 0 0-2.62 6.66v3.08h14.74V84.37a18.93 18.93 0 0 0-1.28 5.44" style="fill:#fff;fill-rule:evenodd"/></g></mask><linearGradient id="linear-gradient-22" x1="-161.14" y1="405.83" x2="-161.09" y2="405.77" gradientTransform="matrix(33.21 0 0 -77.29 5504.88 31467.46)" gradientUnits="userSpaceOnUse"><stop offset="0" stop-color="#bcccd4"/><stop offset="1" stop-color="#8caab6"/></linearGradient><mask id="mask-7" x="173.65" y="84.37" width="14.74" height="34.31" maskUnits="userSpaceOnUse"><g id="mask-29"><path id="path-28" d="M173.65 98v20.67h14.74v-3.07a9.75 9.75 0 0 0-2.62-6.66l-6.3-6.79a16.29 16.29 0 0 1-4.31-9.75l-.22-2.59a18.94 18.94 0 0 0-1.29-5.44z" style="fill:#fff;fill-rule:evenodd"/></g></mask><linearGradient id="linear-gradient-23" x1="-162.36" y1="405.82" x2="-161.92" y2="405.82" gradientTransform="matrix(33.21 0 0 -77.29 5564.97 31467.46)" xlink:href="#linear-gradient-22"/><mask id="mask-8" x="166.95" y="110.01" width="1.05" height="17.63" maskUnits="userSpaceOnUse"><g id="mask-32"><path id="path-31" style="fill:#fff;fill-rule:evenodd" d="M166.95 113.51v12.28l1.05 1.85v-17.63l-1.05 3.5z"/></g></mask><linearGradient id="linear-gradient-24" x1="-215.49" y1="403.82" x2="-215.05" y2="403.82" gradientTransform="matrix(2.37 0 0 -39.7 678.3 16150.84)" xlink:href="#linear-gradient-20"/><linearGradient id="linear-gradient-25" x1="-215.49" y1="403.82" x2="-215.05" y2="403.82" gradientTransform="matrix(2.37 0 0 -39.7 678.3 16150.84)" xlink:href="#linear-gradient-21"/><linearGradient id="linear-gradient-26" x1="302.21" y1="69.76" x2="376.45" y2="69.76" gradientUnits="userSpaceOnUse"><stop offset="0" stop-color="#3a4254" stop-opacity="0"/><stop offset="1" stop-color="#021721"/></linearGradient><linearGradient id="New_Gradient_Swatch_1" x1="309.45" y1="132.83" x2="369.21" y2="132.83" gradientUnits="userSpaceOnUse"><stop offset="0" stop-color="#ffb6b6"/><stop offset="1" stop-color="#ff9271"/></linearGradient><clipPath id="clip-path-6"><path d="M368.57 127.57a18.68 18.68 0 0 0 .64-4.82A18.34 18.34 0 0 0 355 104.89V98h-31.71v6.6a18.33 18.33 0 0 0-13.42 21.67 17.68 17.68 0 0 0 .82 2.71l11.67 38.63H356l12.19-38.78c.14-.4.26-.8.38-1.21z" style="fill:none"/></clipPath><clipPath id="clip-path-7"><path transform="rotate(63.85 304.092 153.656)" style="fill:none" d="M266.03 115.61h76.14v76.14h-76.14z"/></clipPath><pattern id="New_Pattern_Swatch_2" data-name="New Pattern Swatch 2" width="28.8" height="28.8" patternTransform="matrix(.18 0 0 .13 452.03 599.49)" patternUnits="userSpaceOnUse"><path style="fill:none" d="M0 0h28.8v28.8H0z"/><path d="M-.72-3l-2.6 4.51a.83.83 0 0 0 .71 1.24h5.22a.83.83 0 0 0 .71-1.24L.72-3A.83.83 0 0 0-.72-3zM13.68-3l-2.6 4.51a.83.83 0 0 0 .71 1.24H17a.83.83 0 0 0 .71-1.24L15.12-3a.83.83 0 0 0-1.44 0zM6.48 4.22l-2.6 4.52A.83.83 0 0 0 4.59 10h5.22a.83.83 0 0 0 .71-1.24l-2.6-4.54a.83.83 0 0 0-1.44 0zM20.88 4.22l-2.6 4.52A.82.82 0 0 0 19 10h5.22a.83.83 0 0 0 .71-1.24l-2.62-4.54a.83.83 0 0 0-1.43 0zM6.48 18.62l-2.6 4.51a.82.82 0 0 0 .71 1.24h5.22a.82.82 0 0 0 .71-1.24l-2.6-4.51a.83.83 0 0 0-1.44 0zM20.88 18.62l-2.6 4.51a.82.82 0 0 0 .72 1.24h5.22a.82.82 0 0 0 .71-1.24l-2.61-4.51a.83.83 0 0 0-1.44 0zM28.08-3l-2.6 4.51a.83.83 0 0 0 .71 1.24h5.22a.83.83 0 0 0 .71-1.24L29.52-3a.83.83 0 0 0-1.44 0zM-.72 11.41l-2.6 4.52a.83.83 0 0 0 .71 1.24h5.22a.83.83 0 0 0 .71-1.24l-2.6-4.52a.83.83 0 0 0-1.44 0zM13.68 11.41l-2.6 4.52a.83.83 0 0 0 .71 1.24H17a.83.83 0 0 0 .71-1.24l-2.6-4.52a.83.83 0 0 0-1.43 0zM28.08 11.41l-2.6 4.52a.83.83 0 0 0 .71 1.24h5.22a.83.83 0 0 0 .71-1.24l-2.6-4.52a.83.83 0 0 0-1.44 0zM-.72 25.82l-2.6 4.52a.83.83 0 0 0 .71 1.24h5.22a.83.83 0 0 0 .71-1.24l-2.6-4.52a.83.83 0 0 0-1.44 0zM13.68 25.82l-2.6 4.52a.83.83 0 0 0 .71 1.24H17a.83.83 0 0 0 .71-1.24l-2.6-4.52a.83.83 0 0 0-1.43 0zM28.08 25.82l-2.6 4.52a.83.83 0 0 0 .71 1.24h5.22a.83.83 0 0 0 .71-1.24l-2.6-4.52a.83.83 0 0 0-1.44 0z" style="fill:#dae5ec"/></pattern><clipPath id="clip-path-8"><path transform="rotate(66.95 309.456 85.807)" style="fill:none" d="M268.81 45.16h81.28v81.28h-81.28z"/></clipPath><clipPath id="clip-path-9"><path style="fill:none" d="M287.91 139.03l-31.82-74.79 46.6-21.91 31.82 74.79-46.6 21.91z"/></clipPath><linearGradient id="linear-gradient-28" x1="302.16" y1="69.69" x2="376.4" y2="69.69" gradientUnits="userSpaceOnUse"><stop offset="0" stop-color="#b1c6d2"/><stop offset="0.67" stop-color="#cad9e0"/></linearGradient><linearGradient id="linear-gradient-29" x1="339.3" y1="94.94" x2="339.3" y2="44.51" gradientUnits="userSpaceOnUse"><stop offset="0" stop-color="#021721"/><stop offset="1" stop-color="#3a4254" stop-opacity="0"/></linearGradient><linearGradient id="linear-gradient-30" x1="339.33" y1="98.53" x2="339.33" y2="168.19" gradientUnits="userSpaceOnUse"><stop offset="0" stop-color="#ffb6b6" stop-opacity="0"/><stop offset="0.1" stop-color="#ffb5b5" stop-opacity="0.02"/><stop offset="0.23" stop-color="#ffb3b1" stop-opacity="0.08"/><stop offset="0.36" stop-color="#ffb0aa" stop-opacity="0.17"/><stop offset="0.5" stop-color="#ffaba1" stop-opacity="0.3"/><stop offset="0.65" stop-color="#ffa596" stop-opacity="0.47"/><stop offset="0.8" stop-color="#ff9e87" stop-opacity="0.68"/><stop offset="0.95" stop-color="#ff9577" stop-opacity="0.91"/><stop offset="1" stop-color="#ff9271"/></linearGradient><linearGradient id="New_Gradient_Swatch_3" x1="359.91" y1="145.04" x2="390.13" y2="175.26" gradientUnits="userSpaceOnUse"><stop offset="0" stop-color="#c9d9e0"/><stop offset="1" stop-color="#afc5d1"/></linearGradient><pattern id="New_Pattern_Swatch_4" data-name="New Pattern Swatch 4" width="28.8" height="28.8" patternTransform="matrix(.16 0 0 .16 .9 124.11)" patternUnits="userSpaceOnUse"><path style="fill:none" d="M0 0h28.8v28.8H0z"/><path d="M-.72-3l-2.6 4.51a.83.83 0 0 0 .71 1.24h5.22a.83.83 0 0 0 .71-1.24L.72-3A.83.83 0 0 0-.72-3zM13.68-3l-2.6 4.51a.83.83 0 0 0 .71 1.24H17a.83.83 0 0 0 .71-1.24L15.12-3a.83.83 0 0 0-1.44 0zM6.48 4.22l-2.6 4.52A.83.83 0 0 0 4.59 10h5.22a.83.83 0 0 0 .71-1.24l-2.6-4.54a.83.83 0 0 0-1.44 0zM20.88 4.22l-2.6 4.52A.82.82 0 0 0 19 10h5.22a.83.83 0 0 0 .71-1.24l-2.62-4.54a.83.83 0 0 0-1.43 0zM6.48 18.62l-2.6 4.51a.82.82 0 0 0 .71 1.24h5.22a.82.82 0 0 0 .71-1.24l-2.6-4.51a.83.83 0 0 0-1.44 0zM20.88 18.62l-2.6 4.51a.82.82 0 0 0 .72 1.24h5.22a.82.82 0 0 0 .71-1.24l-2.61-4.51a.83.83 0 0 0-1.44 0zM28.08-3l-2.6 4.51a.83.83 0 0 0 .71 1.24h5.22a.83.83 0 0 0 .71-1.24L29.52-3a.83.83 0 0 0-1.44 0zM-.72 11.41l-2.6 4.52a.83.83 0 0 0 .71 1.24h5.22a.83.83 0 0 0 .71-1.24l-2.6-4.52a.83.83 0 0 0-1.44 0zM13.68 11.41l-2.6 4.52a.83.83 0 0 0 .71 1.24H17a.83.83 0 0 0 .71-1.24l-2.6-4.52a.83.83 0 0 0-1.43 0zM28.08 11.41l-2.6 4.52a.83.83 0 0 0 .71 1.24h5.22a.83.83 0 0 0 .71-1.24l-2.6-4.52a.83.83 0 0 0-1.44 0zM-.72 25.82l-2.6 4.52a.83.83 0 0 0 .71 1.24h5.22a.83.83 0 0 0 .71-1.24l-2.6-4.52a.83.83 0 0 0-1.44 0zM13.68 25.82l-2.6 4.52a.83.83 0 0 0 .71 1.24H17a.83.83 0 0 0 .71-1.24l-2.6-4.52a.83.83 0 0 0-1.43 0zM28.08 25.82l-2.6 4.52a.83.83 0 0 0 .71 1.24h5.22a.83.83 0 0 0 .71-1.24l-2.6-4.52a.83.83 0 0 0-1.44 0z" style="fill:#a1b7c1"/></pattern></defs><path id="Rectangle-14" style="fill:url(#linear-gradient)" d="M0 .57h474v204H0z"/><path style="fill:url(#linear-gradient-2)" d="M474.61 203.97H-.11v-56.12l399.41.2 75.31 55.92z"/><path d="M72.61 62.07c0-5.83 4.27-10.55 9.55-10.55h166.49c5.28 0 9.56 4.7 9.56 10.55v87.65c0 5.83-4.27 10.55-9.56 10.55H82.16c-5.27 0-9.55-4.71-9.55-10.55z" style="fill:#24262e"/><g style="mask:url(#mask)"><path d="M134.23-103.92L338.5-13l-70.88 159.2L63.35 55.28z" style="opacity:.07999999821186066;isolation:isolate;fill:url(#linear-gradient-3)"/></g><path d="M284.89 165.77a4.63 4.63 0 0 1-4.64 4.64H50.57a4.64 4.64 0 0 1-4.64-4.64v-4.64h239z"/><path d="M284.89 165.77a4.63 4.63 0 0 1-4.64 4.64H50.57a4.64 4.64 0 0 1-4.64-4.64v-4.64h239z" style="fill:#ececef;fill-rule:evenodd"/><path d="M284.89 165.77a4.63 4.63 0 0 1-4.64 4.64H50.57a4.64 4.64 0 0 1-4.64-4.64v-4.64h239z" style="fill-opacity:.07999999821186066;fill-rule:evenodd;fill:url(#linear-gradient-4)"/><path d="M72.65 150.11H258l26.68 11H45.93z" style="fill:#fff"/><path d="M72.65 150.11H258l26.68 11H45.93z" style="fill:url(#radial-gradient)"/><path d="M257.77 151.31H72.88L52 159.94h226.67zm-185.12-1.2H258l26.68 11H45.93z" style="fill:#ececef"/><path d="M148.3 161.13h34.22l-2.85 2.32h-28.52z" style="fill:#cbcbcf"/><g style="clip-path:url(#clip-path)"><g style="clip-path:url(#clip-path-2)"><path style="fill:url(#linear-gradient-5)" d="M59.37-82.31h213.25v359.86H59.37z"/><path d="M144.78 165.84a16.32 16.32 0 0 0-23-2.11l-.13.11a16.37 16.37 0 0 0-14.33-8.51 14.57 14.57 0 0 0-1.63.09 16.32 16.32 0 0 0-31.33-.56 15.92 15.92 0 0 0-2.39-.18 16.34 16.34 0 0 0-15.49 11.16z" style="fill:url(#linear-gradient-6)"/><path d="M197 157.6a16.32 16.32 0 0 1 23-2.11l.13.11a16.32 16.32 0 0 1 14.33-8.51c.55 0 1.09 0 1.63.08a16.33 16.33 0 0 1 31.35-.57 17.32 17.32 0 0 1 2.38-.17 16.33 16.33 0 0 1 15.49 11.17z" style="fill:url(#linear-gradient-7)"/><path style="opacity:.15000000596046448;isolation:isolate;fill:url(#linear-gradient-8)" d="M59.37 100.95v56.85L272.62-55.45v-26.86h-29.99L59.37 100.95z"/><path style="opacity:.15000000596046448;isolation:isolate;fill:url(#linear-gradient-9)" d="M133.21 277.55l139.41-139.41V81.29L76.37 277.55h56.84z"/><path style="opacity:.15000000596046448;isolation:isolate;fill:url(#linear-gradient-10)" d="M59.37 201.45L272.62-11.8v-56.85L59.37 144.6v56.85z"/></g><circle cx="166.33" cy="108.62" r="97.96" style="fill:url(#linear-gradient-11)"/><circle cx="166.64" cy="108.95" r="97.96" style="fill:none"/><path d="M221.6 86.56h15.23v3.93a4.33 4.33 0 0 1-4.33 4.33h-6.6a4.33 4.33 0 0 1-4.33-4.33v-3.93z" style="fill:none"/><g style="opacity:.5299999713897705"><g style="clip-path:url(#clip-path-3)"><g style="opacity:.25"><g style="clip-path:url(#clip-path-4)"><path style="fill:url(#New_Pattern_Swatch_38)" d="M147.12 62.26h18.5v18.5h-18.5z"/><path style="fill:url(#New_Pattern_Swatch_38-3)" d="M165.77 62.26h18.5v18.5h-18.5z"/><path style="fill:url(#New_Pattern_Swatch_38-5)" d="M147.12 80.92h18.5v18.5h-18.5z"/><path style="fill:url(#New_Pattern_Swatch_38-7)" d="M165.77 80.92h18.5v18.5h-18.5z"/></g></g></g></g><circle cx="117.84" cy="53.35" r="0.67" style="fill:#fff;opacity:.8999999761581421;isolation:isolate"/><circle cx="209.03" cy="96.43" r="0.67" style="fill:#fff;opacity:.8999999761581421;isolation:isolate"/><circle cx="221.64" cy="154.83" r="0.49" style="fill:#fff"/><circle cx="137.96" cy="74.27" r="0.49" style="fill:#fff"/><circle cx="156.19" cy="152.69" r="0.49" style="fill:#fff"/><circle cx="182.5" cy="110.87" r="0.49" style="fill:#fff"/><circle cx="105.2" cy="118.4" r="0.49" style="fill:#fff"/><circle cx="185.5" cy="65.99" r="0.49" style="fill:#fff"/><circle cx="133.14" cy="102.69" r="0.49" style="fill:#fff"/><circle cx="194.91" cy="33.38" r="0.49" style="fill:#fff"/><circle cx="212.57" cy="54.61" r="0.67" style="fill:#fff;opacity:.8999999761581421;isolation:isolate"/><circle cx="130.63" cy="129.17" r="0.67" style="fill:#fff;opacity:.8999999761581421;isolation:isolate"/><circle cx="195.84" cy="139.26" r="1.44" style="fill:#fff;opacity:.699999988079071;isolation:isolate"/><circle cx="162.7" cy="42.49" r="1.44" style="fill:#fff;opacity:.699999988079071;isolation:isolate"/><circle cx="110.82" cy="156.29" r="1.44" style="fill:#fff;opacity:.699999988079071;isolation:isolate"/><circle cx="101.8" cy="84.17" r="1.44" style="fill:#fff;opacity:.699999988079071;isolation:isolate"/><circle cx="163.73" cy="93.92" r="1.44" style="fill:#fff;opacity:.699999988079071;isolation:isolate"/><circle cx="230.53" cy="77.96" r="1.44" style="fill:#fff;opacity:.699999988079071;isolation:isolate"/><g style="opacity:.30000001192092896"><circle cx="155.5" cy="110.02" r="0.48" style="fill:#fff;opacity:.8999999761581421;isolation:isolate"/><circle cx="124.35" cy="44.25" r="0.48" style="fill:#fff;opacity:.8999999761581421;isolation:isolate"/><circle cx="144.05" cy="5.9" r="0.36" style="fill:#fff"/><circle cx="153.85" cy="89.14" r="0.36" style="fill:#fff"/><circle cx="179.58" cy="37.05" r="0.36" style="fill:#fff"/><circle cx="145.76" cy="48.34" r="0.36" style="fill:#fff"/><circle cx="192.32" cy="79.52" r="0.36" style="fill:#fff"/><circle cx="123.54" cy="72" r="0.36" style="fill:#fff"/><circle cx="169.55" cy="75.49" r="0.36" style="fill:#fff"/><circle cx="103.36" cy="85.88" r="0.36" style="fill:#fff"/><circle cx="103.23" cy="65.95" r="0.48" style="fill:#fff;opacity:.8999999761581421;isolation:isolate"/><circle cx="183.07" cy="61.88" r="0.48" style="fill:#fff;opacity:.8999999761581421;isolation:isolate"/><circle cx="151.31" cy="26.4" r="1.04" style="fill:#fff;opacity:.699999988079071;isolation:isolate"/><circle cx="125.5" cy="95.55" r="1.04" style="fill:#fff;opacity:.699999988079071;isolation:isolate"/><circle cx="206.53" cy="55.82" r="1.04" transform="rotate(-80.78 206.536 55.815)" style="fill:#fff;opacity:.699999988079071;isolation:isolate"/><circle cx="178.55" cy="100.17" r="1.04" style="fill:#fff;opacity:.699999988079071;isolation:isolate"/><circle cx="148.47" cy="66.38" r="1.04" style="fill:#fff;opacity:.699999988079071;isolation:isolate"/><circle cx="103.9" cy="44.71" r="1.04" style="fill:#fff;opacity:.699999988079071;isolation:isolate"/></g><g style="opacity:.30000001192092896"><circle cx="235.15" cy="184.36" r="0.48" style="fill:#fff;opacity:.8999999761581421;isolation:isolate"/><circle cx="204.01" cy="118.58" r="0.48" style="fill:#fff;opacity:.8999999761581421;isolation:isolate"/><circle cx="223.71" cy="80.24" r="0.36" style="fill:#fff"/><circle cx="233.51" cy="163.48" r="0.36" style="fill:#fff"/><circle cx="259.24" cy="111.39" r="0.36" style="fill:#fff"/><circle cx="225.42" cy="122.68" r="0.36" style="fill:#fff"/><circle cx="271.98" cy="153.86" r="0.36" style="fill:#fff"/><circle cx="203.2" cy="146.33" r="0.36" style="fill:#fff"/><circle cx="249.21" cy="149.84" r="0.36" style="fill:#fff"/><circle cx="183.02" cy="160.22" r="0.36" style="fill:#fff"/><circle cx="182.89" cy="140.29" r="0.48" style="fill:#fff;opacity:.8999999761581421;isolation:isolate"/><circle cx="262.73" cy="136.21" r="0.48" style="fill:#fff;opacity:.8999999761581421;isolation:isolate"/><circle cx="230.97" cy="100.74" r="1.04" style="fill:#fff;opacity:.699999988079071;isolation:isolate"/><circle cx="205.16" cy="169.88" r="1.04" style="fill:#fff;opacity:.699999988079071;isolation:isolate"/><circle cx="286.19" cy="130.15" r="1.04" style="fill:#fff;opacity:.699999988079071;isolation:isolate"/><circle cx="258.21" cy="174.51" r="1.04" style="fill:#fff;opacity:.699999988079071;isolation:isolate"/><circle cx="228.13" cy="140.72" r="1.04" style="fill:#fff;opacity:.699999988079071;isolation:isolate"/><circle cx="183.56" cy="119.04" r="1.04" style="fill:#fff;opacity:.699999988079071;isolation:isolate"/></g><g style="opacity:.30000001192092896"><circle cx="95.68" cy="141.64" r="0.48" style="fill:#fff;opacity:.8999999761581421;isolation:isolate"/><circle cx="115.38" cy="103.29" r="0.36" style="fill:#fff"/><circle cx="125.17" cy="186.54" r="0.36" style="fill:#fff"/><circle cx="150.91" cy="134.45" r="0.36" style="fill:#fff"/><circle cx="117.09" cy="145.73" r="0.36" style="fill:#fff"/><circle cx="163.65" cy="176.91" r="0.36" style="fill:#fff"/><circle cx="94.87" cy="169.39" r="0.36" style="fill:#fff"/><circle cx="140.88" cy="172.89" r="0.36" style="fill:#fff"/><circle cx="74.69" cy="183.27" r="0.36" style="fill:#fff"/><circle cx="74.56" cy="163.35" r="0.48" style="fill:#fff;opacity:.8999999761581421;isolation:isolate"/><circle cx="154.4" cy="159.27" r="0.48" style="fill:#fff;opacity:.8999999761581421;isolation:isolate"/><circle cx="122.64" cy="123.79" r="1.04" style="fill:#fff;opacity:.699999988079071;isolation:isolate"/><circle cx="96.83" cy="192.94" r="1.04" style="fill:#fff;opacity:.699999988079071;isolation:isolate"/><circle cx="177.86" cy="153.21" r="1.04" style="fill:#fff;opacity:.699999988079071;isolation:isolate"/><circle cx="149.87" cy="197.56" r="1.04" style="fill:#fff;opacity:.699999988079071;isolation:isolate"/><circle cx="119.8" cy="163.78" r="1.04" style="fill:#fff;opacity:.699999988079071;isolation:isolate"/><circle cx="75.23" cy="142.1" r="1.04" style="fill:#fff;opacity:.699999988079071;isolation:isolate"/></g><circle cx="112.67" cy="78.81" r="9.93" style="fill:url(#linear-gradient-12)"/><path d="M119.81 71.91l-14 14a9.93 9.93 0 0 0 14-14z" style="fill:url(#linear-gradient-13)"/><circle cx="212.88" cy="77.93" r="5.59" style="fill:url(#linear-gradient-14)"/><path d="M216.9 74l-7.9 8a5.59 5.59 0 0 0 7.9-8z" style="fill:#fbb03b"/></g><g style="clip-path:url(#clip-path-5)"><g style="mask:url(#mask-2)"><g id="Group-259"><g id="Group-190"><g id="Group-180"><g id="Fill-181"><path d="M171.83 160h5.68c-.32-1.22-.62-2.44-.91-3.67-2.95-12.67-3.08-22.66-2.94-33.73-.09 0-1.15-2-1.23-2h-1.2c-.08 0-1.09 1.79-1.17 1.79.13 11.07-.05 21.22-3 33.89-.29 1.23-.59 2.45-.91 3.67z" style="fill-rule:evenodd;fill:url(#linear-gradient-15)"/><g style="mask:url(#mask-3)"><path d="M166.22 241.09h11.35q-.47-5.47-.9-11c-2.95-38.16-4.06-74.14-3.92-107.48h-1.7c.13 33.34-1 69.32-3.92 107.48q-.44 5.56-.91 11" style="fill-rule:evenodd;fill:url(#linear-gradient-16)"/></g></g></g><g id="Group-186"><path d="M164.1 160h5.67c-.31-1.22-.61-2.44-.9-3.67-3-12.67-3.08-22.66-3-33.73-.08 0-1.14-2-1.23-2h-1.14c-.08 0-1.09 1.79-1.18 1.79.14 11.07 0 21.22-3 33.89-.28 1.23-.59 2.45-.9 3.67z" style="fill-rule:evenodd;fill:url(#linear-gradient-17)"/><g style="mask:url(#mask-4)"><path id="Fill-187" d="M158.36 231.15H169.67q-.47-5.47-.9-11.05a1322.64 1322.64 0 0 1-3.92-107.48h-1.7c.13 33.35-1 69.33-3.92 107.48q-.44 5.58-.91 11.05" style="fill-rule:evenodd;fill:url(#linear-gradient-18)"/></g></g></g><g id="Group-212"><g id="Group-199"><path id="Fill-197" style="fill-rule:evenodd" d="M165 121.32h-2.76l-.39 1.33h3.54l-.39-1.33z"/></g><g id="Group-202"><path id="Fill-200" style="fill-rule:evenodd" d="M164.5 120.47h-1.76l-.25.85h2.26l-.25-.85z"/></g><g id="Group-205"><path id="Fill-203" style="fill-rule:evenodd" d="M169.72 121.32h2.75l.39 1.33h-3.54l.4-1.33z"/></g><g id="Group-208"><path id="Fill-206" style="fill-rule:evenodd" d="M170.21 120.47h1.76l.25.85h-2.26l.25-.85z"/></g><g id="Group-211"><path id="Fill-209" d="M167.36 66.5c-3.26 0-5.9 10.1-5.9 13.49v40.48h11.8V80c0-3.39-2.64-13.49-5.9-13.49" style="fill:#fbfcfc;fill-rule:evenodd"/></g></g><g style="mask:url(#mask-5-2)" id="Group-215"><path id="Fill-213" d="M167.78 120.12h6.1V79.9c0-3.36-2.73-13.4-6.1-13.4z" style="fill-rule:evenodd;fill:url(#linear-gradient-19)"/></g><path id="Fill-216" style="fill-rule:evenodd;fill:url(#linear-gradient-20)" d="M161.46 120.6h11.98v-11.99h-11.98v11.99z"/><path id="Fill-218" style="fill-rule:evenodd;fill:url(#linear-gradient-21)" d="M161.46 120.6h11.98v-11.99h-11.98v11.99z"/><g style="mask:url(#mask-6)" id="Group-222"><path id="Fill-220" d="M160.4 89.81l-.22 2.59a16.29 16.29 0 0 1-4.31 9.75l-6.31 6.79a9.8 9.8 0 0 0-2.62 6.66v3.08h14.74V84.37a18.93 18.93 0 0 0-1.28 5.44" style="fill-rule:evenodd;fill:url(#linear-gradient-22)"/></g><g style="mask:url(#mask-7)" id="Group-225"><path id="Fill-223" d="M173.65 98v20.67h14.74v-3.07a9.75 9.75 0 0 0-2.62-6.66l-6.3-6.79a16.29 16.29 0 0 1-4.31-9.75l-.22-2.59a18.94 18.94 0 0 0-1.29-5.44z" style="fill-rule:evenodd;fill:url(#linear-gradient-23)"/></g><g id="Group-232"><g id="Group-228"><path id="Stroke-226" d="M161.46 84.45h12" style="fill:none;stroke:#ebeef0;stroke-width:.2694834122821106px"/></g><g id="Group-231"><path id="Stroke-229" d="M161.46 96.72h12" style="fill:none;stroke:#ebeef0;stroke-width:.2694834122821106px"/></g></g><g style="mask:url(#mask-8)" id="Group-235"><path id="Fill-233" style="fill-rule:evenodd;fill:url(#linear-gradient-24)" d="M166.95 113.51v12.28l1.05 1.85v-17.63l-1.05 3.5z"/></g><g style="mask:url(#mask-8)" id="Group-238"><path id="Fill-236" style="fill-rule:evenodd;fill:url(#linear-gradient-25)" d="M166.95 113.51v12.28l1.05 1.85v-17.63l-1.05 3.5z"/></g><g id="Group-247"><g id="Group-241"><path id="Fill-239" style="fill:#006e8c;fill-rule:evenodd" d="M169.44 125.65l-.99 1.83v-17.46l.99 3.46v12.17z"/></g><path id="Fill-242" style="fill-rule:evenodd" d="M167.22 73.33h2.47v-1.09h-2.47v1.09z"/><path id="Fill-244" d="M166.76 73.33H166a.53.53 0 0 1-.52-.54.54.54 0 0 1 .52-.55h.72z" style="fill-rule:evenodd"/><path id="Fill-245" d="M170.15 73.33h.71a.53.53 0 0 0 .52-.54.54.54 0 0 0-.52-.55h-.71z" style="fill-rule:evenodd"/><path id="Fill-246" style="fill:#9babb2;fill-rule:evenodd" d="M174.35 118.83v-33.8l3.47 33.8h-3.47z"/></g></g></g></g><path style="fill:url(#linear-gradient-26)" d="M376.45 95.02h-74.24l16.86-50.51h40.15l17.23 50.51z"/><path style="fill:#6e7377" d="M338.31 95.02h2.05v2.99h-2.05z"/><path d="M368.57 127.57a18.68 18.68 0 0 0 .64-4.82A18.34 18.34 0 0 0 355 104.89V98h-31.71v6.6a18.33 18.33 0 0 0-13.42 21.67 17.68 17.68 0 0 0 .82 2.71l11.67 38.63H356l12.19-38.78c.14-.4.26-.8.38-1.21z" style="fill:url(#New_Gradient_Swatch_1)"/><g style="opacity:.52"><g style="clip-path:url(#clip-path-6)"><g style="clip-path:url(#clip-path-7)"><path d="M388 48.53c13.66 1.35 21.46 5.82 33 9.54 17.46 5.64 31.09 16.76 43.5 27.93 6.73 6.06 16 11.37 26.87 11.2 12.24-.2 22.29-16.82 33.13-23.2 13.83-8.11 24.27-2 34.36 3.67 16 9 20.55 48.89 12.16 64.38-3.86 7.12-16.91 16.55-25.54 17.66-32 4.11-44.3-19.41-75.4-18.4-18.31.6-42.05 14.72-56.65 21.41-17.36 8-34.17 10.94-54.8 11.7-33.17 1.22-75.1-20.08-80.31-49.91-1.38-7.89-.3-14.72 1.56-22.93C288 65.92 320.86 41.87 388 48.53z" style="opacity:.7000000000000001;fill:url(#New_Pattern_Swatch_2)"/></g></g></g><g style="clip-path:url(#clip-path-8)"><path style="fill:url(#linear-gradient-26)" d="M376.45 95.02h-74.24l16.86-50.51h40.15l17.23 50.51z"/></g><g style="clip-path:url(#clip-path-9)"><path style="fill:url(#linear-gradient-28)" d="M376.4 94.94h-74.24l16.86-50.51h40.15l17.23 50.51z"/></g><path style="fill:url(#linear-gradient-29)" d="M359.22 44.51h-40.15l-16.91 50.43h74.29l-17.23-50.43z"/><path d="M368.57 128.09a18.55 18.55 0 0 0 .64-4.81A18.33 18.33 0 0 0 355 105.42v-6.89h-31.71v6.61a18.34 18.34 0 0 0-13.84 17.77 18.56 18.56 0 0 0 .42 3.9 17.56 17.56 0 0 0 .82 2.7l11.67 38.64H356l12.19-38.79c.14-.39.26-.8.38-1.2z" style="fill:url(#linear-gradient-30)"/><path d="M372.62 139.68a12.66 12.66 0 0 1 12.66 12.66v16.06H360v-16.06a12.66 12.66 0 0 1 12.62-12.66z" style="fill:url(#New_Gradient_Swatch_3)"/><path d="M385.28 168.15l-23-23a12.6 12.6 0 0 0-2.28 7.23v16.02h25.32z" style="fill:url(#New_Pattern_Swatch_4)"/><circle cx="372.62" cy="153.1" r="9.07" style="fill:#fff"/><path d="M369.37 157.69c-2.1-.26-3.94-2.36-1.4-6.65s0-5.71 0-5.72a9.06 9.06 0 1 0 9.4 15.5c-1.97-5.19-5.9-2.82-8-3.13z" style="fill:#99a6b2;opacity:.18"/><g style="opacity:.55"><path d="M376.4 155.4c-.33.38 0 0 0 0zm-2-1.77c-.32.38 0 0 0 0zm-.4.06l-.07.1a1.39 1.39 0 0 0 .16-.17s.01-.02-.09.07zm-2.29-1.16h-.08.12s.04-.01-.02 0zm.54-1a.45.45 0 0 0 .23 0zm-.11-.06a.8.8 0 0 0 .23 0s-.06.02-.21.03zm4.1 4.36c.07-.07.05 0 .05 0a1 1 0 0 1-.15.17s.03 0 .12-.14zm-.42 0c.06-.07 0 0 .05 0s-.15.17-.16.16a.5.5 0 0 1 .13-.1zm-1.08-1.16c.06 0 .11-.1.09-.07l-.15.17zm-.61-.36s0 .06-.13.2zm-1-1.32a.91.91 0 0 1-.17.17zm-.42 0h.06l.23.01-.23.12c-.12.03 0-.02-.01-.02zm-.1-.35h-.12s.05.12.17.11zm.22-1.36h-.12.12zm-.08-.77h-.15-.12.23a2.29 2.29 0 0 0-.33 0c-.22 0-.16 0 0 0s.15.07-.1.07a2.57 2.57 0 0 1 .28 0h.16c-.3 0-.3.08-.29.09s.18.06.45.08h-.44c-.15 0-.21 0 0 0h.2-.1a1.88 1.88 0 0 0 .41 0l-.45.05H372.79h-.22H372.68c-.22 0-.15.08-.14.09s.09 0 .12.05-.19 0-.12 0h.24-.36a.8.8 0 0 0 .24 0h.1-.36H372.23h.58-.35.39-.33-.2.62-.51a3 3 0 0 0 .37 0h-.23.09c.1 0 .1 0 0 0h.16-.3c-.09 0 0 0 0 0h.5-.28a1 1 0 0 0-.31 0h.33-.31.08c-.03 0-.13 0-.11.06s.24 0 .29 0h-.44s.05 0 .11.06h.19-.42a2.15 2.15 0 0 0 .39.06.73.73 0 0 0-.24 0h.17c.11 0-.14 0-.24.06h.11c-.08 0 0 0 0 0v.07h.18-.19.35l-.2.05c-.06 0 0 0 0 0s.16 0-.06.05l.21-.05c-.16.05-.16.06-.17.08h.09s-.12.07-.13.09 0 0-.12.11c0 0 .22-.1.28-.11s-.11.07-.16.09l-.06.05s.32-.09.12 0l.37-.2-.14.09h-.05s0 .05 0 0l-.28.18s.15-.06.16-.06-.05.1-.07.15.44-.36.27-.18-.19.2-.13.18.3-.25.11-.05 0 .06.06 0 0 .1-.05.14a3.81 3.81 0 0 0 .28-.31c.07-.07-.2.28-.11.18a.91.91 0 0 1 .1-.13 2 2 0 0 0-.22.28c0 .08 0 .08.1 0s0 0 .07 0-.19.23-.19.23.3-.34.14-.11.27-.17.12 0l.25-.24c-.12.14-.14.18-.14.2s-.08.12-.15.21.26-.27.27-.26l-.28.32s.08 0 .17-.14.11-.15.13-.15 0 0-.05.08l-.27.33.11-.12c.05-.05.08-.08.09-.07l.15-.15c.07-.07-.14.19-.07.12l.12-.12s-.17.14-.17.18.05 0 .16-.14c-.21.25-.07.21 0 .23a2 2 0 0 0 .23-.26c.14-.14.14-.14 0 0s-.27.39-.25.41 0 0 .1-.06.16-.16.18-.15-.18.16-.16.18h.05l.21-.18-.22.25c0 .06-.06.11 0 0s.05 0 .06 0 .09-.1.13-.13-.05.08-.06.11 0 0 .1-.08-.13.15-.08.11l.11-.08s.08-.06 0 0l-.09.1.1-.08c.1-.08.12-.12 0 0a1.62 1.62 0 0 0-.16.21v.12l.12-.14c.06-.07.11-.11.07 0s-.08.13 0 0c-.21.25 0 .09 0 .09v.13c0 .05.09 0 0 .14s0 0 .15-.14l.16-.16-.18.23c-.06.08 0 .08 0 0a.22.22 0 0 1 .1-.07l-.09.12c-.06.1.26-.27.27-.26s-.22.26-.25.3.19-.14.26-.19.11 0 0 .06-.11.09-.14.16 0 0 .11-.09.11-.15.15-.18-.28.38-.18.27l.2-.22.14-.14c-.16.18-.23.26-.21.28a.4.4 0 0 0 .17-.15l-.17.2c-.06.07-.06.1 0 .08s.32-.34.1 0 .07-.05.08 0-.13.19-.08.14l.16-.17c-.07.11-.12.14-.16.22s0 .08 0 0 0 0 .06 0 .16-.17.17-.16l-.16.17.09-.07c.09-.07.08-.07 0 0s0 0 .08-.08.08-.08.09-.07l-.26.3c.1-.12.14-.12.15-.11s-.07.1-.08.14 0 .14 0 .18-.07.09-.06.1H374.75a.43.43 0 0 0 .12-.09c.05-.05 0 0 .05 0s-.07.05-.07.07v.06c0 .06 0 0 .07 0l.25-.3a1.62 1.62 0 0 1-.22.29c-.12.14-.06.09-.05.11s.05 0 0 .07v.07l.12-.11c.09-.08 0 .1 0 .14s.09-.07.2-.18-.09.12-.13.17.12-.1.13-.11-.08.13-.11.19 0 .05 0 0 .13-.06 0 .1 0 0 .06 0 .12 0 .21-.05.09 0 .21-.2c-.06.08-.17.2-.21.26v.14c0 .01.09 0 .1 0l.45-.51a2.64 2.64 0 0 1-.24.3c-.14.14-.19.21-.17.23s0 0 .06 0l.06-.06a2.17 2.17 0 0 1-.25.36c.11-.11.11-.11.13-.1s0 0 .09 0 .1-.1.09-.08a.92.92 0 0 0-.11.15h.07c-.11.14.08-.07.15-.15s.1-.09.1-.09c-.16.19-.21.24-.2.28s0 .07.07.09 0 .05.08 0 .12-.11.1-.08a1.71 1.71 0 0 0-.11.14s0 .08.06 0 0 0 .07 0l.14-.13-.09.12c-.05.07-.05.1 0 .11a.11.11 0 0 0 .08 0s.08-.06.15-.16.43-.57.05-.12c.1-.11 0-.12.15-.26s0 0-.05 0-.12 0-.13-.07.12-.29-.21.1l-.18.2.2-.26.42-.5a.6.6 0 0 0-.08.08l.08-.15c-.2.23-.07 0-.23.23s-.28.31-.13.11.15-.18.2-.26 0-.06 0 0-.05.05-.06 0l.08-.11c.14-.17-.17.14-.05 0 0 0-.23.22-.19.17l.13-.17-.17.18.23-.29c-.12.13-.21.21-.15.11s.05-.09 0-.09-.07.05-.06.06 0 0-.07.07 0-.08 0-.1 0-.08 0 0-.2.24-.07 0 .14-.21 0 0-.19.2-.11.08.17-.21.09-.15-.2.19-.18.15.14-.13.18-.18-.11.07-.14.1 0 0 0-.09a.31.31 0 0 0 .06-.12h-.06c-.06 0-.16.14-.07 0s.11-.17.07-.15a2.11 2.11 0 0 0-.18.2c.22-.26.13-.22 0-.11s-.07.05 0 0a1.74 1.74 0 0 0 .13-.15c0-.05 0 0-.06 0s-.06 0 0-.06-.06.05-.08.06 0-.06-.08 0-.07 0-.06 0 .07-.15 0 0 .08-.11.09-.14-.05 0-.05 0-.11.11-.05 0 .14-.25-.1 0c.25-.28.11-.25 0-.15s.28-.37.05-.13-.24.26-.13.11h-.05a1.35 1.35 0 0 0 .09-.11s.07-.14 0-.13a3.21 3.21 0 0 1-.37.45s.15-.19.2-.25 0 0 0-.06.13-.19.09-.14-.13.13-.11.09.11-.16.1-.18-.11 0-.14 0-.14.18-.2.24.13-.18.18-.24-.15.17-.11.1l.16-.2s-.2.22-.19.18.17-.24.09-.15a1 1 0 0 1-.12.15s.2-.23.21-.26l-.07.07a.41.41 0 0 0-.14.17v-.12c0-.12.16-.22.08-.15s-.1.1-.12.1a.29.29 0 0 1-.07.08h-.06c-.06 0-.12.1 0 0s0-.09 0 0a.47.47 0 0 0-.1.15v-.06c0-.06.09-.12.1-.15s-.09.07 0 0 .22-.3.07-.13-.24.28-.16.15a1.64 1.64 0 0 0 .13-.19s0-.09 0 0-.21.27-.2.23.13-.15.18-.23l-.17.17c-.07.07 0 0 0 0s.12-.2.08-.17-.3.35-.3.35.07-.1.1-.15a.31.31 0 0 0 .06-.12s.16-.24.12-.21l-.12.12.08-.12s-.24.23-.27.23.22-.3.21-.32l-.11.14s.11-.16.09-.15-.07 0-.08 0h-.05c-.05 0 0 0 0 0s0-.06-.05 0-.19.2-.12.11.28-.33.12-.19-.31.33-.21.17a1.58 1.58 0 0 0 .17-.25h-.06c-.01 0 .1-.15.09-.16l-.09.1c-.12.12.13-.2.12-.21s-.34.41-.21.23.08-.11.06-.13a1.46 1.46 0 0 1 .12-.15c-.2.24-.07 0-.26.23.11-.13.06-.13.05-.13h-.07l-.12.12.26-.31-.18.19c-.09.1-.21.24-.22.22l.26-.3c0-.05-.08.07-.12.11s0 0 0-.06l.09-.13s-.19.21-.18.18l.08-.1h-.08c-.02 0 .07-.11 0-.08a.81.81 0 0 0-.12.13c.13-.16.2-.23.18-.25l-.07.09s0-.11-.07 0a1.93 1.93 0 0 1-.16.19 1.63 1.63 0 0 1 .11-.17c.05-.1.07-.16 0-.15s-.11.09-.13.08-.07.06-.2.2c0-.05.28-.38.15-.23s-.21.3-.3.4l.14-.22c.07-.09.17-.23.28-.36-.19.22-.12.09-.23.2s0 0 .12-.17.05-.08.12-.15l-.34.39a3.14 3.14 0 0 1 .24-.33c-.06 0-.24.26-.14.14s.23-.26 0-.08 0 0-.08.06.12-.12.15-.14-.11.08-.11.07l.15-.11c.1-.08 0 0 0 0s-.52.37-.19.13.18-.13 0 0-.22.12.05 0-.17.08 0 0c-.15.08-.54.24-.17.07l.15-.07h-.11.09l-.2.06.28-.1s-.2.06-.06 0h-.1c-.07 0 0 0 0 0s.22-.07-.14 0l.22-.06h-.14l.26-.05-.33.05a.59.59 0 0 1 .2 0h-.27l.54-.06h-.38c.06 0 .15 0 0 0h-.49a2.34 2.34 0 0 1 .4 0h.19-.34c.28 0 .29-.06.29-.08a1.23 1.23 0 0 1-.23 0s.47 0 .24-.05h-.13a2.85 2.85 0 0 0 .3 0h-.11.12a.66.66 0 0 0-.28 0h.18-.27-.17.37a.4.4 0 0 0-.26 0h-.28c-.08 0-.14 0 0 0h.61c.02 0 0 0 0 0h-.12a2.56 2.56 0 0 0-.43 0h.62-.24c-.06 0 0 0 0 0h.15-.17.21a2.21 2.21 0 0 1-.37 0h.25-.1.08-.1H373.08h.27-.24a3.92 3.92 0 0 1 .42 0H373.08h.24-.32.32a3.74 3.74 0 0 1-.38 0H373.17h-.06.16c-.11 0 0 0 0 0h-.03c.13 0 .21 0 0 0h-.11c.13 0 .54-.08.13-.1h-.14.22-.47.29-.23.35a.18.18 0 0 1-.12 0l.11-.05c.11-.05.3 0 .18 0h-.22.08c.08 0 .14-.05.06-.05h-.08c.01 0 0 0 0 0h-.09c-.06 0 0 0 0 0s-.19 0 0 0h.17-.22.23a2.71 2.71 0 0 0-.58-.16zm.55-.72h.11-.11zm-.82-.22a.59.59 0 0 0 .19 0h.24a.77.77 0 0 0-.35.05H372.23h.23-.13a.92.92 0 0 0 .26 0h.09-.18c.11 0 .17 0 .11.05s-.28 0-.22 0H372.31h.22c.04 0 0 0 0 .06s-.27.09-.2.12a.86.86 0 0 0 .21 0H372.52h-.05.14c-.13 0 0 0 0 0s.19.06-.07.05 0 0 .07 0h-.37a7.23 7.23 0 0 0 .76-.05h.19-.05.11-.05c.14 0-.33-.05.06-.05h-.12a1.47 1.47 0 0 0-.25 0h.22c.35 0 .06 0 0 0s.09-.07.13-.06 0 0-.11 0h-.05.18H373.19h.09H372.94h.26c.08 0 .05 0 0 0h-.17s.32 0 .17-.05-.12 0-.11 0h-.23.28-.28.36a2.81 2.81 0 0 0-.58 0 .77.77 0 0 0-.11-.01zm-.18-.85h.12-.12zm.2-1.27h.12zm.39 2a.88.88 0 0 1-.23 0 .57.57 0 0 1 .28.09zm-.29-.39h.11-.34zm.1-.61h-.35a1.3 1.3 0 0 1 .4.09zm.05-.33h-.23a1.72 1.72 0 0 1 .28.09zm.14-.13h-.24s.29.06.29.09zm.32-2h-.92s-.07 0 0 0h.2c-.14 0-.12.05-.09.07s.28 0 .24 0h-.18-.21.42-.31.33-.36c-.23 0 0 .07 0 .08s.3 0 .2 0-.09 0-.1.06a.64.64 0 0 0 .36-.07v.05c0 .05 0 0-.17 0h-.29c-.18 0 .14 0 .15.06s-.12 0-.29.06H372.44a1.71 1.71 0 0 0 .26 0h-.38c-.05 0 0 0 0 0a.39.39 0 0 0 .18 0h.1-.19.15-.16.09v.05h.19c-.2 0-.22 0-.22.05s.15 0 .12 0h-.21c-.05 0 0 0 0 0h.31H372.2a3.9 3.9 0 0 0 .63 0H372.7c.01 0 0 0 0 0H372.92h-.19-.12c-.08 0-.08 0 0 0h.16a1.06 1.06 0 0 1-.22 0c-.06 0-.07 0 0 0h-.14a3.11 3.11 0 0 0 .47 0s-.07 0 0 0h-.16H373.01a2.67 2.67 0 0 0-.4 0c-.06 0 0 0 0 .06s0 0 .1 0h.12.13c.02 0 .29 0 0 0h-.22s-.06.05 0 .06a2.93 2.93 0 0 0 .33 0 1 1 0 0 1-.23 0h-.12l-.06.05h-.41H372.95h-.47c-.13 0 0 0 0 0h.15s-.08.07.05.09.16 0 .11 0h-.25c-.13 0-.17 0 0 .07h.17-.28.66-.4s.1 0 0 0h-.11s.15 0 0 0 .06.06.06.08h.35-.2.3c-.14 0-.86.06-.47.06h.28a2.68 2.68 0 0 0-.39 0h.09-.16c-.07 0 .46 0 .29.06a1 1 0 0 0-.3 0h.05a1.6 1.6 0 0 1 .3 0h-.08a2.74 2.74 0 0 1-.29 0h.19-.26a1.48 1.48 0 0 1 .32 0s.05 0 0 0h-.13s-.07 0 0 0h.17a2.14 2.14 0 0 0-.36 0h.1.1c.1 0 0 0 0 0h-.18.17-.24.47-.32.19s.08.06.07.07h-.18H372.67a2.64 2.64 0 0 0 .54 0h.11c.09 0 .15 0 .12-.06h-.33H373.18h-.05.33a.49.49 0 0 0-.22 0s-.2-.05-.17-.06h.37c-.08 0-.16-.06-.23-.07s0 0 .06 0h.07c.07 0 0 0 0 0h-.37H373.14 373.26h-.11.07l-.13-.06c-.13-.06-.11 0 .08 0h.11-.08.11-.24.25c.02 0 0 0 0-.08h-.16H373.22h.2c.02 0 .06 0 0 0a2.55 2.55 0 0 0-.28 0h.22-.36.18-.06a1.23 1.23 0 0 0 .25 0 1.15 1.15 0 0 0-.34 0c.43 0 0-.1.32-.1s-.06 0-.09-.05-.11 0-.11-.06.13 0 .12 0h-.18.36c-.24 0-.11-.13-.1-.14s.12 0 .11-.06a.33.33 0 0 0-.14 0h-.29.24-.13.27a.93.93 0 0 0-.31 0 1.1 1.1 0 0 1 .24 0h.13a1.11 1.11 0 0 1-.29 0s.07 0 0 0h-.1H373.28h-.26.13c.07 0 .09 0-.09-.06a1.4 1.4 0 0 0 .29 0h-.12H373.14c-.02 0 0 0 0 0l-.28-.05h.25-.06-.07a1.09 1.09 0 0 0 .22 0h0s.12 0 .08-.05h-.19H373.17h-.24.31c.08 0-.36 0-.13-.05s.06 0 0-.06-.08 0 0 0h.18-.21a.48.48 0 0 1 .23 0c-.5 0 .07 0 0 0a2.53 2.53 0 0 1-.3 0H373.13h-.1s.43-.06.27-.09h-.14.12-.1c-.02 0 .33-.1 0-.13z" style="fill:#99a6b2"/></g></svg>