<?xml version="1.0" encoding="UTF-8"?><svg width="419px" height="180px" xmlns="http://www.w3.org/2000/svg" xmlns:xlink="http://www.w3.org/1999/xlink"><!--Generator: Sketch 57.1 (83088) - https://sketch.com--><defs><path id="path-1" d="M0 0h419v180H0z"/><linearGradient x1="0%" y1="50%" y2="53.444151%" id="linearGradient-3"><stop stop-color="#007373" offset="0%"/><stop stop-color="#009A9A" offset="100%"/></linearGradient><linearGradient x1="0%" y1="39.4530616%" y2="65.265584%" id="linearGradient-4"><stop stop-color="#69E9B8" offset="0%"/><stop stop-color="#49D1E5" offset="100%"/></linearGradient><linearGradient x1="6.21586474%" y1="110.810939%" x2="143.433545%" y2="110.810939%" id="linearGradient-5"><stop stop-color="#69E9B8" offset="0%"/><stop stop-color="#49D1E5" offset="100%"/></linearGradient><linearGradient x1="6.21586474%" y1="110.810939%" x2="143.433545%" y2="110.810939%" id="linearGradient-6"><stop stop-color="#69E9B8" offset="0%"/><stop stop-color="#49D1E5" offset="100%"/></linearGradient><linearGradient x1="6.21586474%" y1="110.810939%" x2="143.433545%" y2="110.810939%" id="linearGradient-7"><stop stop-color="#69E9B8" offset="0%"/><stop stop-color="#49D1E5" offset="100%"/></linearGradient><linearGradient x1="0%" y1="50%" y2="50%" id="linearGradient-8"><stop stop-color="#1F222D" offset="0%"/><stop stop-color="#383F4D" offset="100%"/></linearGradient><linearGradient x1="6497%" y1="3800%" x2="6847%" y2="3800%" id="linearGradient-9"><stop stop-color="#1F222D" offset="0%"/><stop stop-color="#383F4D" offset="100%"/></linearGradient><linearGradient x1="4825%" y1="4337%" x2="5017%" y2="4337%" id="linearGradient-10"><stop stop-color="#1F222D" offset="0%"/><stop stop-color="#383F4D" offset="100%"/></linearGradient><ellipse id="path-11" cx="33.3657106" cy="33.5381166" rx="33.3657106" ry="33.5381166"/><path d="M0 3.06C0 1.37 1.368 0 3.06 0h53.328c1.69 0 3.061 1.366 3.061 3.06v25.425c0 1.69-1.368 3.06-3.06 3.06H3.06A3.058 3.058 0 0 1 0 28.485V3.06z" id="path-13"/><linearGradient x1="50%" y1="0%" x2="50%" y2="100%" id="linearGradient-15"><stop stop-color="#FFFFFF" stop-opacity="0" offset="0%"/><stop stop-color="#FFFFFF" offset="100%"/></linearGradient><path d="M0 34.196h76.54v1.484c0 .82-.661 1.485-1.477 1.485H1.478A1.477 1.477 0 0 1 0 35.68v-1.484z" id="path-16"/><filter x="-11.1%" y="-218.9%" width="122.2%" height="672.6%" filterUnits="objectBoundingBox" id="filter-17"><feOffset dy="2" in="SourceAlpha" result="shadowOffsetOuter1"/><feGaussianBlur stdDeviation="2.5" in="shadowOffsetOuter1" result="shadowBlurOuter1"/><feColorMatrix values="0 0 0 0 0   0 0 0 0 0   0 0 0 0 0  0 0 0 0.1 0" in="shadowBlurOuter1"/></filter><radialGradient cx="89.1256154%" cy="0%" fx="89.1256154%" fy="0%" r="544.620066%" gradientTransform="matrix(0 1 -.14209 0 .891 -.891)" id="radialGradient-18"><stop stop-color="#000000" stop-opacity="0.1" offset="0%"/><stop stop-color="#000000" stop-opacity="0" offset="100%"/></radialGradient><path id="path-19" d="M8.557 32.123h59.375l8.546 3.526H0z"/><linearGradient x1="40.7621505%" y1="84.7943495%" x2="84.7477644%" y2="-59.1878324%" id="linearGradient-20"><stop stop-color="#FFFFFF" stop-opacity="0.5" offset="0%"/><stop stop-color="#2D2C3E" stop-opacity="0.5" offset="100%"/></linearGradient><path d="M.026 1.96A1.22 1.22 0 0 1 1.246.738h21.03c.674 0 1.22.548 1.22 1.222v41.512a1.22 1.22 0 0 1-1.22 1.222H1.246c-.674 0-1.22-.548-1.22-1.222V1.96z" id="path-21"/><filter x="-36.2%" y="-14.8%" width="172.4%" height="138.7%" filterUnits="objectBoundingBox" id="filter-22"><feOffset dy="2" in="SourceAlpha" result="shadowOffsetOuter1"/><feGaussianBlur stdDeviation="2.5" in="shadowOffsetOuter1" result="shadowBlurOuter1"/><feColorMatrix values="0 0 0 0 0   0 0 0 0 0   0 0 0 0 0  0 0 0 0.1 0" in="shadowBlurOuter1"/></filter><path id="path-23" d="M0 0h21.515v34.188H0z"/><linearGradient x1="50%" y1="37.3366139%" x2="50%" y2="100%" id="linearGradient-25"><stop stop-color="#FFFFFF" stop-opacity="0" offset="0%"/><stop stop-color="#FFFFFF" offset="100%"/></linearGradient><linearGradient x1="50%" y1="0%" x2="50%" y2="284.517045%" id="linearGradient-26"><stop stop-color="#FFFFFF" stop-opacity="0" offset="0%"/><stop stop-color="#FFFFFF" offset="100%"/></linearGradient><path id="path-27" d="M.506.145h9.106l.506 7.799H0z"/><linearGradient x1="50%" y1="100%" x2="50%" y2="3.061617e-15%" id="linearGradient-28"><stop stop-color="#000000" stop-opacity="0" offset="0%"/><stop stop-color="#000000" offset="100%"/></linearGradient><linearGradient x1="50%" y1="100%" x2="50%" y2="3.061617e-15%" id="linearGradient-29"><stop stop-color="#000000" stop-opacity="0" offset="0%"/><stop stop-color="#000000" offset="100%"/></linearGradient><linearGradient x1="53.8584235%" y1="11.1327957%" x2="53.8584232%" y2="142.507627%" id="linearGradient-30"><stop stop-color="#FFFFFF" stop-opacity="0.5" offset="0%"/><stop stop-color="#A2A0B3" stop-opacity="0.5" offset="100%"/></linearGradient><linearGradient x1="50%" y1="0%" x2="50%" y2="100%" id="linearGradient-31"><stop stop-color="#636D7F" stop-opacity="0.5" offset="0%"/><stop stop-color="#202431" stop-opacity="0.5" offset="100%"/></linearGradient><path d="M19.665 21.815c-.543.568-1.633 1.028-2.428 1.028h-7.5c-.799 0-1.88-.454-2.429-1.028L1.984 16.25c-.544-.568-.316-1.028.467-1.028h22.072c.8 0 1.016.454.467 1.028l-5.325 5.565z" id="path-32"/><linearGradient x1="50%" y1="100%" x2="50%" y2="80.2604167%" id="linearGradient-33"><stop stop-color="#000000" offset="0%"/><stop stop-color="#000000" stop-opacity="0" offset="100%"/></linearGradient><rect id="path-34" width="26.9808142" height="10.1477828" rx="1.2"/></defs><g id="Page-1" fill="none" fill-rule="evenodd"><g id="1240-copy-56" transform="translate(-133 -99)"><g id="Group-12-Copy" transform="translate(133 99)"><mask id="mask-2" fill="white"><use xlink:href="#path-1"/></mask><use id="Mask" fill="#D8D8D8" xlink:href="#path-1"/><g mask="url(#mask-2)"><g transform="translate(1 -1)"><path id="Rectangle-14" fill="url(#linearGradient-3)" fill-rule="nonzero" d="M0 0h419v202H0z"/><g id="Group-3-Copy-3" transform="translate(33 13)"><g id="Group-5" transform="translate(50.311 37.834)"><path id="Rectangle-12" fill="url(#linearGradient-4)" fill-rule="nonzero" d="M.167 33.461h52.847v24.272H.167z"/><path id="Rectangle-13-Copy" fill="#52D7D9" fill-rule="nonzero" d="M52.552 25.534l24.536 20.555-24.536 21.06zM203.879 36.245l13.968 11.764-13.968 12.052z"/><path id="Rectangle-12-Copy-2" fill="#48FADD" fill-rule="nonzero" d="M4.885 50.058h31.142v1.867H4.885z"/><path id="Rectangle-12-Copy-3" fill="#48FADD" fill-rule="nonzero" d="M.167 45.363h20.761v1.867H.167z"/><path d="M126.171 39.926c7.28-.162 13.025-1.555 17.237-4.18 6.584-4.101 20.14-22.842 29.511-30.933 3.254-2.81 7.925-4.177 14.013-4.103" id="Line-12" stroke="url(#linearGradient-5)" stroke-width="11.88" stroke-linecap="square" fill-rule="nonzero"/><path d="M126.87 92.441c7.697-.156 13.772-1.5 18.227-4.03 6.963-3.957 21.687-22.027 31.597-29.83 3.44-2.71 8.25-4.03 14.428-3.962" id="Line-12-Copy" stroke="url(#linearGradient-6)" stroke-width="11.88" stroke-linecap="square" fill-rule="nonzero" transform="matrix(1 0 0 -1 0 147.058)"/><path d="M119.164 47.698h78.267" id="Line-2" stroke="url(#linearGradient-7)" stroke-width="14.52" stroke-linecap="square" fill-rule="nonzero"/><path id="Rectangle-12-Copy-4" fill="#48FADD" fill-rule="nonzero" d="M104.345 48.92h47.53v1.867h-47.53z"/><g id="Artboard-1" transform="translate(66.966 6.826)"><g id="Layer_1"><path id="Shape" fill="#383E4B" d="M23.116 18.88l-10.262 2.264V5.677h10.262z"/><path id="Shape" fill="url(#linearGradient-8)" d="M4.269 36.89l4.757-1.132v-3.38l-4.757 4.445z"/><path id="Shape" fill="#383E4B" d="M36.993 7.693L6.437 34.54l-4.024-4.246L36.965 0z"/><path d="M5.11 30.615l2.339 2.902-3.14 2.888C1.903 35.952 0 32.292 0 32.292l3.548-3.048" id="Shape" fill="#383E4B"/><path d="M4.733 32.483l.734-.692" id="Shape" fill="#99B900"/><path id="Shape" fill="#C7F2FB" d="M65.438 57.848H8.214v-24.69l28.694-25.21 28.68 22.148z"/><path d="M5.893 57.138c0-.203.158-.368.367-.368h61.67c.203 0 .367.165.367.368v5.452a.363.363 0 0 1-.366.369H6.26a.368.368 0 0 1-.367-.369v-5.452z" id="Rectangle-path" fill="#8BC5E7"/><path id="Shape" fill="url(#linearGradient-9)" d="M70.921 36.823l-4.757-1.065v-3.38z"/><path id="Shape" fill="#505662" d="M37.243 7.693L67.786 34.54l4.023-4.246L37.216 0z"/><path d="M69.535 30.615l-2.338 2.902 3.14 2.888c2.406-.453 4.308-4.113 4.308-4.113l-3.574-3.048" id="Shape" fill="#505662"/><path d="M69.273 32.483l-.734-.692" id="Shape" fill="#99B900"/><path id="Shape" fill="#4F5562" d="M58.645 26.674L37.06 7.694l-8.727 7.666-6.198-2.303L37.032 0l36.81 32.224z"/><g id="Group-2" transform="translate(27.669 26.974)"><path id="Rectangle-path" fill="#1E7A8C" opacity="0.318180804" d="M0 0h17.94v30.388H0z"/><path id="Rectangle-path" fill="#44484C" d="M4.64 3.406h10.041v10.75H4.641zM4.64 17.03h10.041v10.662H4.641z"/><ellipse id="Oval" fill="url(#linearGradient-10)" cx="16.3123902" cy="15.94051" rx="1.23105719" ry="1.1803754"/></g><path d="M5.628 56.4c-.75 0-1.36.595-1.36 1.33v3.527c0 .736.61 1.331 1.36 1.331h52.807L12.682 56.4H5.628z" id="Shape" fill="#99D2FE"/><path id="Shape" fill="#B0DCE6" d="M8.268 39.293l-.054-6.322L36.908 7.948l3.303 2.915z"/></g></g></g><g id="Rectangle-6-+-Rectangle-7-+-Rectangle-5-Mask" transform="translate(0 48.92)"><g id="Group-7"><mask id="mask-12" fill="white"><use xlink:href="#path-11"/></mask><use id="Mask" fill="#90ECFF" fill-rule="nonzero" xlink:href="#path-11"/><ellipse id="Mask-Copy" fill="#C7F2FB" fill-rule="nonzero" mask="url(#mask-12)" cx="45.3557578" cy="33.7480587" rx="35.1692626" ry="35.4545804"/><path d="M46.646 41.736l11.909.755c1.931-6.143 3.011-9.074 3.24-8.792.076.094 2.778-4.246 3.612-2.615 1.005 1.968.154 10.004 0 10.652-.433 1.812-4.775 3.278-4.775 3.678 0 1.188-.692 3.02-2.077 5.497-.632 2.87-1.204 4.715-1.714 5.532-2.024 3.243-5.242 3.86-5.895 4.407-.801.67-3.039.745-3.273 0-.307-.978 1.51-2.968 1.241-2.864-1.33.519 1.911-4.202 1.084-4.202-1.59 0-3.548-.958-5.872-2.873-1.122-2.615-1.682-4.447-1.682-5.497 0-1.05 1.4-2.276 4.202-3.678z" id="Rectangle-6" fill="#4F5562" fill-rule="nonzero" mask="url(#mask-12)"/><path d="M48.135 25.373c1.371-1.776 2.73-2.664 4.074-2.664 1.344 0 2.263.62 2.757 1.86 2.594-4.877 4.29-7.37 5.088-7.483 3.189-.447 4.144 6.376 4.791 6.937 1.73 1.5-.193 8.127 0 8.848.343 1.277-1.428 2.446-5.31 3.506-.81.814-1.412 1.47-1.803 1.966-.356.45.31 2.373 0 2.79-.267.36-.315-.73-.664-.62-.798.254-1.94 1.329-2.102 1.446-.402.292 1.225-2.739.96-2.657-.762.234-1.542-1.95-2.189-1.934-2.18.052-3.642 1.382-4.63.975-1.693-.698-2.016-2.92-.972-6.665v-6.305z" id="Rectangle-7" fill="#4F5562" fill-rule="nonzero" mask="url(#mask-12)"/><path d="M1.315 16.9c-2.63.572-4.143.572-4.538 0-.708-1.023.998-4.995.923-5.332-.512-2.293 2.931-1.163 6.201 0 1.69.601 10.054 4.513 12.618 5.989 1.615.93 6.736-1.643 8.763 0 .882.714 9.583-8.644 13.683-5.989.378.245 6.861-1.564 6.301.991-.32 1.455-3.332 5.551-9.039 12.287-4.717 1.496-7.076 3.362-7.076 5.599 0 2.236-.59 5.592-1.768 10.065 1.602 2.683 2.192 4.224 1.768 4.624-.423.4-2.166-.053-5.229-1.357-1.618.03-2.98.03-4.089 0-.768-.02.65 5.645-1.527 6.831-.306.167-.25 3.674-1.058 4.239-.16.111 5.925 4.7 4.695 4.93-.293.056 2.596 3.924 0 3.884-.778-.011-2.815 2.095-5.424 2.155-1.723.04-4.135-1.835-5.03-2.155-3.414-1.219-2.24-4.27-2.998-4.589-2.566-1.084 3.151-3.28 2.998-3.431-.602-.598 3.136-2.85 2.772-3.038-1.577-.81-2.587-4.81-2.772-4.847-2.366-.466-3.753-2.881-4.16-7.246-1.527-8.256-2.29-13.478-2.29-15.664S3.798 20.01 1.315 16.9z" id="Rectangle-5" fill="#4F5562" fill-rule="nonzero" mask="url(#mask-12)"/></g></g><path id="Bg" d="M235.5 122.656h20.952v21.014h-20.951z"/><path id="Rectangle-13" fill="#52D7D9" fill-rule="nonzero" d="M241.752 118.987l12.438 10.475-12.438 10.732z"/><path id="Rectangle-13-Copy-2" fill="#52D7D9" fill-rule="nonzero" d="M241.752 27.923l12.438 10.475-12.438 10.732z"/><g id="Group-23" transform="translate(275.109 65.268)"><path d="M8.265 3.376C8.265 1.51 9.633 0 11.326 0h53.328c1.69 0 3.06 1.506 3.06 3.376v28.043c0 1.864-1.367 3.376-3.06 3.376H11.326c-1.69 0-3.06-1.507-3.06-3.376V3.376z" id="Combined-Shape" fill="#24262E"/><g id="Rectangle-8" transform="translate(8.265)"><mask id="mask-14" fill="white"><use xlink:href="#path-13"/></mask><path fill="url(#linearGradient-15)" opacity="0.08" mask="url(#mask-14)" transform="rotate(24 41.101 -9.715)" d="M5.242-37.618l71.657.079.061 55.727-71.657-.079z"/></g><g id="Combined-Shape"><use fill="black" filter="url(#filter-17)" xlink:href="#path-16"/><use fill="#ECECEF" xlink:href="#path-16"/><use fill="#99D3FF" xlink:href="#path-16"/></g><g id="Rectangle-4"><use fill="#DEF9FF" xlink:href="#path-19"/><use fill="url(#radialGradient-18)" xlink:href="#path-19"/></g><path d="M67.856 32.506H8.633l-6.702 2.76H74.55l-6.693-2.76zm-59.299-.383h59.375l8.546 3.526H0l8.557-3.526z" id="Rectangle-4" fill="#8BC5E7" fill-rule="nonzero"/><path id="Rectangle-9" fill="#44484C" d="M32.029 35.232h10.96l-.913.742h-9.134z"/></g><g id="Group" transform="translate(273.904)"><g id="Combined-Shape"><use fill="black" filter="url(#filter-22)" xlink:href="#path-21"/><use fill="#DEF9FF" xlink:href="#path-21"/><use fill-opacity="0.0800000057" fill="url(#linearGradient-20)" xlink:href="#path-21"/></g><path d="M.27 1.96v41.512c0 .54.438.977.976.977h21.03c.54 0 .976-.437.976-.977V1.96a.977.977 0 0 0-.976-.978H1.246a.976.976 0 0 0-.976.978zm-.244 0A1.22 1.22 0 0 1 1.246.738h21.03c.674 0 1.22.548 1.22 1.222v41.512a1.22 1.22 0 0 1-1.22 1.222H1.246c-.674 0-1.22-.548-1.22-1.222V1.96z" id="Combined-Shape" fill="#99D2FE" fill-rule="nonzero"/><g id="Rectangle-8" transform="translate(1.004 4.401)"><mask id="mask-24" fill="white"><use xlink:href="#path-23"/></mask><use id="Mask" fill="#24262E" xlink:href="#path-23"/><path fill="url(#linearGradient-25)" opacity="0.08" mask="url(#mask-24)" transform="rotate(24 16.785 .098)" d="M-5.731-19.427l44.99.05.042 39-44.99-.049z"/></g><path d="M10.783 3.668h1.956a.489.489 0 1 0 0-.976h-1.956a.489.489 0 1 0 0 .976z" id="Line" fill="#44484C" fill-rule="nonzero"/><path d="M13.48 41.343c0 .948-.77 1.717-1.719 1.717a1.718 1.718 0 1 1 1.719-1.717z" id="Rectangle-11" fill="#4F5562"/></g><g id="Group-19" transform="translate(274.803 123.838)"><path d="M7.671.721C8.015.323 8.713 0 9.252 0h8.476c.53 0 1.236.321 1.581.721l6.05 7.014c.344.399.189.721-.342.721H1.963c-.533 0-.687-.32-.342-.72L7.67.72z" id="Rectangle-6" fill="#DEF9FF"/><g id="bottom" transform="translate(8.432 21.842)"><g id="Rectangle-20"><use fill="#CEF3FD" xlink:href="#path-27"/><use fill-opacity="0.370000005" fill="url(#linearGradient-26)" xlink:href="#path-27"/></g><path id="Rectangle-27" fill-opacity="0.200000018" fill="url(#linearGradient-28)" d="M.402.798h9.3v2.284L.3 3.158z"/><path id="Rectangle-27" fill-opacity="0.200000018" fill="url(#linearGradient-29)" d="M.48.209L9.561.064l.173 2.214-9.362.291z"/></g><g id="Rectangle-6"><use fill="#C8F5FF" xlink:href="#path-32"/><use fill-opacity="0.800000012" fill="url(#linearGradient-30)" xlink:href="#path-32"/><use fill="#D4F7FF" xlink:href="#path-32"/><use fill-opacity="0.300000012" fill="url(#linearGradient-31)" xlink:href="#path-32"/></g><path id="Fill-25" fill="#4F5562" d="M3.373 30.443h20.236v-1.69H3.372z"/><path id="Fill-27" fill="#24262E" d="M3.373 30.787h20.235v-.344H3.373z"/><g id="Path-19" transform="translate(0 5.074)"><mask id="mask-35" fill="white"><use xlink:href="#path-34"/></mask><g id="Mask"><use fill="#282A30" xlink:href="#path-34"/><use fill-opacity="0.9" fill="url(#linearGradient-33)" xlink:href="#path-34"/></g><path fill-opacity="0.1" fill="#FFFFFF" mask="url(#mask-35)" d="M-2.427-.427L27.392 9.72V-.851H-.024z"/></g><path d="M10.118 10.148a3.378 3.378 0 0 1 3.372-3.383 3.377 3.377 0 0 1 3.373 3.383 3.377 3.377 0 0 1-3.373 3.382 3.378 3.378 0 0 1-3.372-3.382z" id="Stroke-19" stroke="#868F96" stroke-width="0.66" opacity="0.450294384"/><path d="M11.804 10.148c0-.934.755-1.692 1.686-1.692.932 0 1.687.758 1.687 1.692 0 .934-.755 1.691-1.687 1.691a1.689 1.689 0 0 1-1.686-1.691" id="Fill-21" fill="#646A70"/></g></g></g></g></g></g></g></svg>